<svg xmlns="http://www.w3.org/2000/svg" width="36" height="36"><path d="M13.922 33.14a7.812 7.812 0 01-5.57 2.313 7.812 7.812 0 01-5.57-2.313c-3.043-3.04-3.043-8.054 0-11.096l7.882-7.8c1.372-1.372 3.214-2.27 5.185-2.4 2.271-.17 4.457.687 6.042 2.272.256.257.514.557.728.856.343.514.3 1.157-.129 1.585l-.043.044a1.228 1.228 0 01-1.843-.17c-.17-.173-.343-.387-.514-.558a5.313 5.313 0 00-3.812-1.585 5.313 5.313 0 00-3.813 1.585L4.54 23.799c-2.486 2.486-2.014 6.814 1.37 8.613.258.13.514.215.772.3 2.013.6 4.027.085 5.441-1.329l4.713-4.713a1.268 1.268 0 011.757 0 1.268 1.268 0 010 1.757zm3.772-25.922l4.67-4.669c1.37-1.37 3.127-2.228 5.012-2.4 2.741-.214 5.355.986 7.026 3.257a7.72 7.72 0 011.37 3.428c.343 2.527-.472 4.97-2.227 6.726l-7.883 7.885a7.812 7.812 0 01-5.57 2.313 7.812 7.812 0 01-5.57-2.313c-.214-.215-.429-.429-.6-.687a1.198 1.198 0 01.13-1.628 1.26 1.26 0 011.842.085c.13.171.258.3.429.472a5.313 5.313 0 003.812 1.585 5.384 5.384 0 003.813-1.585l7.798-7.797c.942-.943 1.543-2.143 1.67-3.428.17-2.142-.9-4.2-2.914-5.27a5.93 5.93 0 00-.772-.344c-2.013-.599-4.07-.085-5.484 1.33l-4.799 4.798a1.268 1.268 0 01-1.757 0c-.469-.514-.469-1.286.003-1.758z" opacity=".15"/></svg>