<svg xmlns="http://www.w3.org/2000/svg" width="16" height="16"><path fill="#fff" d="M11.687 3.593a.75.75 0 101.5.002.75.75 0 00-1.5-.002zM8 11.063a3.063 3.063 0 11-.002-6.126A3.063 3.063 0 018 11.063zm0-7.376a4.313 4.313 0 10-.002 8.626A4.313 4.313 0 008 3.687zm6.752 7.666a3.4 3.4 0 01-3.4 3.4h-6.7a3.4 3.4 0 01-3.4-3.4V4.648a3.4 3.4 0 013.4-3.4h6.7a3.4 3.4 0 013.4 3.4zM4.652 0A4.653 4.653 0 000 4.647v6.706A4.653 4.653 0 004.648 16h6.7A4.653 4.653 0 0016 11.354V4.648A4.653 4.653 0 0011.352 0z" opacity=".5"/></svg>