<svg xmlns="http://www.w3.org/2000/svg" width="11" height="16"><defs><clipPath id="a"><path fill="#fff" d="M5.544.56a5.423 5.423 0 015.424 5.424c0 2.995-5.424 9.924-5.424 9.924S.121 8.98.121 5.984A5.423 5.423 0 015.544.561z"/></clipPath></defs><path fill="none" stroke="#fff" stroke-miterlimit="50" stroke-width="2" d="M5.544.56a5.423 5.423 0 015.424 5.424c0 2.995-5.424 9.924-5.424 9.924v0S.121 8.98.121 5.984A5.423 5.423 0 015.544.561z" clip-path="url(&quot;#a&quot;)"/><path fill="#fff" d="M4.595 5.853a1 1 0 112 0 1 1 0 01-2 0z"/></svg>