<svg xmlns="http://www.w3.org/2000/svg" width="77" height="26"><defs><clipPath id="a"><path fill="#fff" d="M0 9c0-4.5 4.5-9 9-9h59c4.5 0 9 4.5 9 9v8c0 4.5-4.5 9-9 9H9c-4.5 0-9-4.5-9-9z"/></clipPath></defs><g opacity=".95"><path fill="#fff" d="M14.424 13.393a.564.564 0 01-.654-.458l-.61-3.455a7.351 7.351 0 00-4.035 6.561h-.294a1.079 1.079 0 100 2.158h15.3a1.08 1.08 0 000-2.158h-.295a7.353 7.353 0 00-4.035-6.563l-.609 3.457a.565.565 0 01-.653.458.564.564 0 01-.457-.654l.696-3.948a1.475 1.475 0 00-1.254-.696h-2.087c-.53 0-.992.279-1.253.696l.696 3.948a.565.565 0 01-.458.654z" opacity=".95"/><path fill="none" stroke="#fff" stroke-miterlimit="50" stroke-width="2" d="M0 9c0-4.5 4.5-9 9-9h59c4.5 0 9 4.5 9 9v8c0 4.5-4.5 9-9 9H9c-4.5 0-9-4.5-9-9z" clip-path="url(&quot;#a&quot;)" opacity=".95"/><path fill="#fff" d="M64.6 11.76l-2.24 4h-2.24l-2.24-4V18H55V6.8h3.04l3.2 5.92 3.2-5.92h3.04V18H64.6zM50.68 10c0-.64-.32-.96-.96-.96h-3.2v3.52h3.2c.64 0 .96-.32.96-.96zm-7.04-3.2h6.72c1.12 0 1.933.253 2.44.76.507.507.76 1.32.76 2.44v1.6c0 1.12-.253 1.933-.76 2.44-.507.507-1.32.76-2.44.76h-3.84V18h-2.88zm-1.6 8.16c0 1.12-.253 1.933-.76 2.44-.507.507-1.32.76-2.44.76h-4c-1.12 0-1.933-.253-2.44-.76-.507-.507-.76-1.32-.76-2.44V9.84c0-1.12.253-1.933.76-2.44.507-.507 1.32-.76 2.44-.76h4c1.12 0 1.933.253 2.44.76.507.507.76 1.32.76 2.44zm-2.88-5.12c0-.64-.32-.96-.96-.96h-2.72c-.64 0-.96.32-.96.96v5.12c0 .64.32.96.96.96h2.72c.64 0 .96-.32.96-.96z" opacity=".95"/></g></svg>