<svg xmlns="http://www.w3.org/2000/svg" width="17" height="17" viewBox="0 0 17 17"><g><g opacity=".5"><path fill="#fff" d="M15.01 0H1.846A1.848 1.848 0 0 0 0 1.845V15.01c0 1.017.828 1.845 1.846 1.845H7.79c.151 0 .272-.122.272-.272v-6.108a.272.272 0 0 0-.272-.272H6.657V8.786h1.134c.151 0 .272-.122.272-.271v-.446c0-1.432.417-2.616 1.17-3.335.624-.59 1.541-.928 2.516-.928.385 0 .744.034 1.069.1V5.41a3.6 3.6 0 0 0-.682-.062c-1.284 0-2.02.96-2.02 2.637v.53c0 .15.121.271.272.271h1.903l-.465 1.417H10.41a.272.272 0 0 0-.272.272v6.108c0 .15.12.272.271.272h4.6a1.848 1.848 0 0 0 1.846-1.846V1.845A1.848 1.848 0 0 0 15.01 0z"/></g></g></svg>
