<svg xmlns="http://www.w3.org/2000/svg" width="14" height="15" viewBox="0 0 14 15"><g><g opacity=".25"><path d="M6.915.943l6.077 4.709v8.597H9.43v-2.514A2.518 2.518 0 0 0 6.915 9.22a2.518 2.518 0 0 0-2.514 2.515v2.514H.838V5.652zM6.66.085L.164 5.115A.426.426 0 0 0 0 5.449v9.22c0 .219.2.419.42.419h4.4c.22 0 .419-.2.419-.42v-2.933c0-.936.74-1.676 1.676-1.676.936 0 1.677.74 1.677 1.676v2.934c0 .219.2.419.419.419h4.4c.22 0 .42-.2.42-.42v-9.22a.429.429 0 0 0-.164-.333L7.17.085a.425.425 0 0 0-.511 0z"/></g></g></svg>