<svg xmlns="http://www.w3.org/2000/svg" width="11" height="16" viewBox="0 0 11 16"><defs><clipPath id="8qc8a"><path fill="#fff" d="M5.544.56a5.423 5.423 0 0 1 5.424 5.424c0 2.995-5.424 9.924-5.424 9.924S.121 8.98.121 5.984A5.423 5.423 0 0 1 5.544.561z"/></clipPath></defs><g><g><g><path fill="none" stroke="#fff" stroke-miterlimit="50" stroke-width="2" d="M5.544.56a5.423 5.423 0 0 1 5.424 5.424c0 2.995-5.424 9.924-5.424 9.924v0S.121 8.98.121 5.984A5.423 5.423 0 0 1 5.544.561z" clip-path="url(&quot;#8qc8a&quot;)"/></g><g><path fill="#fff" d="M4.595 5.853a1 1 0 1 1 2 0 1 1 0 0 1-2 0z"/></g></g></g></svg>