<svg xmlns="http://www.w3.org/2000/svg" width="12" height="12" viewBox="0 0 12 12"><g><g opacity=".75"><path fill="#fff" d="M1.799.01a.391.391 0 0 0-.237.016C.71.358.173 1.573.047 2.41-.348 5.124 1.799 7.475 3.77 9.02c1.752 1.373 5.113 3.63 7.101 1.452.253-.268.553-.663.537-1.057-.048-.663-.663-1.136-1.136-1.5-.364-.268-1.121-1.01-1.595-.994-.426.016-.694.458-.962.726l-.474.474c-.079.079-1.088-.584-1.2-.663A7.432 7.432 0 0 1 3.96 5.486c-.078-.11-.725-1.073-.662-1.151 0 0 .552-.6.71-.837.332-.505.584-.9.206-1.499-.142-.22-.316-.395-.505-.584C3.376 1.1 3.045.768 2.666.5 2.461.34 2.114.058 1.799.01z"/></g></g></svg>