<svg xmlns="http://www.w3.org/2000/svg" width="54" height="66" viewBox="0 0 54 66"><g><g><g><path fill="#070606" d="M11.64 49.301l.318.558-.286.156zM23.42 6.026l-.516.021-2.183-.458v-.458l2.308.406zm30.043 24.055l.12-.599.343-.047v-1.869l-1.323.948-.172.161.151.328-.394.365.063.558-1.41-.032-.297.188.052 1.575-.312 1.062-.386.406.14.578-.317.245-.063.75-.416.807v-1.088c0-6.03.003-12.08.01-18.148l.021-2.797-.525-1.678-2.202-2.816-2.442-1.953-.25.062a25.615 25.615 0 0 0-3.64 3.04l-1.162.818.273 2.116v1.35l-.9.119-2.838 1.395-2.932 1.23-1.495-1.515a8.677 8.677 0 0 1-1.13-4.578l.797-2.052-.073-1.385.77.542-.193-1.265-.27-.422.838-.208-1.135-1.037 1.072-.469a19.123 19.123 0 0 1-3.572-1.312 7.4 7.4 0 0 0-4.145-.682l-.947.385-.376.588-1.15.204-.92.317V2.975l1.1.01.697.573.286-1.006-.286-1-.744.567h-1.05V1.026l.588-.703-.77-.234h-.515l-.77.262.593.72.01 1.042h-1.087l-.73-.567-.25 1.312.25.698.73-.572h1.088c0 1.541.01 3.083 0 4.624l-.525.797.963 1.015.984-1.015-.557-.693v-1.75L22.527 7l.995 2.832a13.113 13.113 0 0 1-.516 4.395l-1.145 2.068-1.027.86-2.91-1.225-1.996-1.13-1.723-.376v-1.48l.263-2-1.199-.859A23.474 23.474 0 0 0 9.51 6.97a15.269 15.269 0 0 0-3.786 3.427l-1.344 2.312-.131 1.136c.02 2.817.02 5.65.042 8.488-.021 1.927 0 3.859-.021 5.775l-.573-.919-.42 1.313-1.76-1.374.262 2.239.36.525L.57 29.49l.427 1.093 1.14 1.162 1.162.302-.506.23-.515.717.624.516.667-.739.193-.468.525 1.109v.844l-2.385-.302.788.931-.969.21 1.651 1.56.919.245v8.363c0 2.969 0 5.926-.042 8.868l-.37 1.62L5.18 54.7l2.172-3v.436a7.5 7.5 0 0 0 2.921-2.905l.85-.146-.71.563.526.797-.646.703-.291 1.26.426.823.151-.277 1.385 1.667.89.1 1.015-.813.074.25-.365 1.609.198.13 1.969 1.038.505-2.363-1.505-.817-.255-.58.604-1.27c1.062-1.41 2.12-2.828 3.218-4.2l.088.417.891-1.125 1.713-1.505-.709-.308-1.588 1.599-.286-1.062-.86.402-.172-.919-.937.198 1.006-1.526-.48-.244-1.416 2.342.625.032a80.008 80.008 0 0 0-2.323 3.412l-.37.334-.646-.021-.275-.599.431.263.99-.225-.255-.828-.733.099-.667.219-.073-.193 1.63-1.667.224-1.969-1.042.464-.074-.876-.031-.291.89-3.099-.104-1.38c-.349 1.282-.656 2.547-1.125 3.786L12.36 43l-1.14 1.386-.011-.765.131-.62-.131-.505c.01-7.436 0-14.873.01-22.298l1.14 1.005 1.401-1.28-.262-.975-.92.797v-3.583l.485-.812.437.656 1.575 1.864.937-1.03.244-.141.953 1.172 1.38-1.099 2.172.416-1.193.708 2.802-.516 1.505-.948-.807 1.459a4.48 4.48 0 0 0 3.018-1.527l.667 1.218.704-1.218a4.236 4.236 0 0 0 2.999 1.527l-.84-1.459 1.345.865 1.05.37 1.937.229-1.151-.708 2.167-.416 1.37 1.12.854-1.078.132-.094 1.145 1.14 1.995-2.514.437.682.079.37c-.01 1.115 0 2.24-.01 3.375l-.927-.844-.27.994 1.39 1.281 1.145-1.026c.01 3.192.014 6.386.01 9.58 0 5.426-.003 10.862-.01 16.31l-.656-.905-1.037-2.541-.849-2.983-.104 1.333.042.214c.424 1.646.93 3.27 1.516 4.864l.891 1.995.381.787-.765.355v.719l-.588-.188-.91.062-.573-.394c-.709-1.161-1.537-2.27-2.292-3.39l.588-.031-1.4-2.343-.458.228.979 1.527-.932-.183-.161.912-.85-.431-.322 1.098-1.575-1.588-.77.323.093-.02 1.291 1.129 1.302 1.495.079-.432c1.103 1.478 2.254 2.9 3.337 4.4l.495 1.062.797.881-.485.172-.057.442-.61-.073-.068.828.069 1.49.875-.558 1.037-.797-.427-.468.334-.448.838.104.443-.36 1.18-1.41.12.29.442-.9-.301-1.228-.73-.704.787-.458-.182-.823.172.162.974 1.333 1.926 1.51v-.457l2.12 2.969 1.35 1.098-.324-1.01-.063-1.558c-.02-5.005-.02-9.975-.02-14.962l.062-.593 1.323-2.536.578-.51-.021-.35.563-.16.145-.657.865-.919 1.172-.787v-.199l-.926-1.213z"/></g><g><path fill="#f0f817" d="M19.692.379h1.182l-.346.656v1.282l1.242.03.738-.36-.01 1.164-.788-.377h-1.165v1.083l-.111.743-.361.96-.01-2.786h-1.226l-.759.377V1.987l.458.3.85.06.686-.03v-1.16z"/></g><g><path fill="#77490e" d="M24.107 3.184h1.797c1.63.177 2.994 1.193 4.541 1.661l-.37.484.919.667-.72.386.72.87-.88-.23.203 1.995-.245.672-.525 1.204.042 1.181a7.218 7.218 0 0 0 .92 3.334l.854 1.426-1.474-.979-.895-1.146-.08-.885-.01-2.985h-.401v3.4l.084.776 1.031 2.469-.563-.333-1.244-1.136-.198-.484V10.84h-.41v5.208l-.459.542-.51-.656.073-1.13c-.01-1.313-.01-3.968-.01-3.968h-.386v4.567l-.323.75-1.713 1.35 1.016-2.38.114-.943v-3.342H24.6v3.4l-.61 1.292-1.905 1.343.85-1.333c.729-1.418 1.085-3 1.036-4.593V9.487l-.5-2.025-.032-.563.71-.182 1.203.672-.49-.87-.24-.448L25.742 6l.38-.62-.35-.562 1.204-.12.578.172 1.344.787.458.151-1.891-1.369-1.74-.031-1.55-.437-.912-.047v-.364z"/></g><g><path fill="#77490e" d="M23.39 4.61l.244-.336.737.122.596.263-.555.248-.285.417z"/></g><g><path fill="#de0a00" d="M20.44 4.944l1.094-.558 1.495-.032.817 1.672a3.183 3.183 0 0 0-3.406-1.082z"/></g><g><path fill="#070606" d="M22.468 4.723l.437.427-.463-.229z"/></g><g><path fill="#f0f817" d="M20.07 5.841l.43-.58.031 1.343v1.181l.345.579-.58.656-.575-.656.347-.702z"/></g><g><path fill="#de0a00" d="M21.966 6.075l1.607.224-.534.64z"/></g><g><path fill="#77490e" d="M9.214 8.506l.285-.204 2.262 1.893 1.262.823.143.173.01 3.15-1.129-.92-.737-.918.28-1.058-.422-.107-.295.778-.27.448-.93.951-1.093-1.622-.07-.545.365-.803-.345-.157-.412.787-.04.493-1.272 1.287-.122-.071-.575-1.215.111-.301z"/></g><g><path fill="#77490e" d="M44.016 8.318l1.852 1.514 1.565 1.725-.68 1.434-1.347-1.347-.062-.703-.34-.544-.394.131.418.88-.082.457-1.118 1.638-.93-.966-.255-.416-.33-.819-.376.158.295.656-.06.448-1.281 1.424-.56.32.03-3.23 1.435-.925z"/></g><g><path fill="#77490e" d="M5.57 12.355l.393.636.244.641v1.714l-.173.262-.778.692v-2.868z"/></g><g><path fill="#77490e" d="M47.322 13.444l.615-1.098.326 1.084v2.837l-.952-.824z"/></g><g><path fill="#77490e" d="M44.328 14.228l1.083-1.575c.01 1.244 0 2.51 0 3.77l-1.083-.952z"/></g><g><path fill="#77490e" d="M8.104 12.655l.87 1.266.198.421v1.12l-1.067.968a400.68 400.68 0 0 1-.001-3.775z"/></g><g><path fill="#77490e" d="M6.6 14l1.072-1.089c.01 1.167.01 2.338 0 3.515l-1.062-.953z"/></g><g><path fill="#77490e" d="M45.839 12.911l.635.646.432.442.01 1.474-1.077.953a98.092 98.092 0 0 1 0-3.515z"/></g><g><path fill="#77490e" d="M11.067 13.169l1.608 1.775-.394.549-1.211 1.038z"/></g><g><path fill="#77490e" d="M40.819 14.944L42.43 13.2l.01 3.331-1.22-1.058z"/></g><g><path fill="#77490e" d="M9.724 14.226l.947-.879v3.076l-1.099-.981v-1.028z"/></g><g><path fill="#77490e" d="M42.835 13.347l1.088.996-.01 1.129-1.078.951z"/></g><g><path fill="#77490e" d="M13.057 15.364l.437.657 1.575 1.863.937-1.03.244-.14.953 1.172 1.38-1.099 2.171.416-1.193.709 2.802-.516 1.506-.948-.808 1.459a4.48 4.48 0 0 0 3.019-1.527l.667 1.218.703-1.218a4.236 4.236 0 0 0 3 1.527l-.84-1.459 1.344.865 1.05.37 1.937.229-1.15-.709 2.166-.416 1.37 1.12.855-1.078.131-.093 1.146 1.14 1.995-2.514.437.682.077.37c-.01 1.115 0 2.24-.01 3.375l-.927-.844.86-.919c-9.426-.01-18.883-.01-28.313-.01v-1.838z"/></g><g><path fill="#77490e" d="M14.057 15.493l.94-.07 1.694.447-1.764 1.21z"/></g><g><path fill="#77490e" d="M36.885 15.84l1.537-.417 1.017.05-.29.702-.575.92-1.689-1.182z"/></g><g><path fill="#77490e" d="M16.712 15.89l1.82.896-1.383.525-.263-.407z"/></g><g><path fill="#77490e" d="M35.208 16.664l1.597-.773-.244 1.169-.262.193-1.302-.467z"/></g><g><path fill="#77490e" d="M5.26 17.543l.94-.858.011 2.126-.01.951-.92-.798z"/></g><g><path fill="#77490e" d="M8.096 17.69l1.073-1.007v3.077l-1.073-.952z"/></g><g><path fill="#77490e" d="M9.592 16.683l.94.885.132.193v.976l-.106.174-.992.875z"/></g><g><path fill="#77490e" d="M45.837 17.69l1.069-.976v3.046l-1.069-.95z"/></g><g><path fill="#77490e" d="M47.311 16.683l.952.885v1.362l-.952.855z"/></g><g><path fill="#77490e" d="M6.611 16.714l.911.808.163.228-.01 1.058-.448.416-.616.534z"/></g><g><path fill="#77490e" d="M11.987 16.908l.168-.172v3.051l-.936-.854-.152-.193v-.957z"/></g><g><path fill="#77490e" d="M41.357 16.735l1.068 1.027.01 1.05-1.078.95z"/></g><g><path fill="#77490e" d="M42.835 17.691l1.078-.955v3.026l-.758-.666-.32-.331z"/></g><g><path fill="#77490e" d="M44.332 16.714l1.079.976v1.12l-1.079.976z"/></g><g><path fill="#f0f817" d="M12.572 18.014c9.432 0 18.888 0 28.314.01l-.86.92-.27.994v19.72l-.104 1.334-1.209 1.485-1.906 1.166-.458.229-2.858 1.333-.77.323-2.547 1.13-.666.312-1.365.776-1.12 1.068-.787-.802-1.698-1.068-.657-.307-2.606-1.143-.709-.307-2.837-1.313-.48-.244-2.395-1.598-.719-.995-.103-1.38c.01-6.566.01-13.143 0-19.73l-.263-.974-.919-.937z"/></g><g><path fill="#77490e" d="M12.572 18.026l.92.936-.92.798z"/></g><g><path fill="#de0a00" d="M14.108 18.66H39.37l-.244.614-.058 1.05v10.275l.02.812a10.793 10.793 0 0 1-3.9-2.102l-2.718 1.646-1.031.286-.156-.286 2.817-1.697 1.444-2.702-.255-3.104a9.293 9.293 0 0 0-3.04-3.343l-1.141-1.11.474 2.354a9.975 9.975 0 0 1 1.005 3.443l-.688 2.54-1.405.874-.797.188-.437.25-1.15-.615-.7.36-.918.224-1.005-.582-1.26.614-.73-.36-.926-.219-1.406-1.562v-3.12l.828-2.191.411-2.151-.688.703-2.625 2.348a4.838 4.838 0 0 0-1.239 3.114 5.563 5.563 0 0 0 1.016 3.385 6.369 6.369 0 0 0 3.364 2.363l-.15.286-2.657-1.032-1.104-.9a10.597 10.597 0 0 1-3.88 2.109c.021-3.874 0-7.743 0-11.613z"/></g><g><path fill="#070606" d="M31.586 21.346l-.474-2.353 1.14 1.11a9.292 9.292 0 0 1 3.041 3.342l.255 3.104-1.444 2.702-2.818 1.697.157.286 1.031-.286 2.718-1.646a10.799 10.799 0 0 0 3.9 2.11h-.041a22.689 22.689 0 0 0-3.859 2.223l-2.03-1.527-1.677-.817 1.042 1.89-1.729.333-1.395.927-.646 1.958-.059 2.241.376 2.4 1.432 1.282-.042 1.495-1.541.896-1.302.895-1.823-.042-1.444-1.026-1.375-.755.02-1.484 1.1-.788.515-1.005.198-1.453-.026-2.48-.667-2.124-.979-.75-2.146-.524 1.021-1.875-2.395 1.266-1.312 1.078a22.483 22.483 0 0 0-3.88-2.223 10.604 10.604 0 0 0 3.88-2.109l1.104.9 2.656 1.032.15-.286a6.37 6.37 0 0 1-3.363-2.362 5.565 5.565 0 0 1-1.016-3.385 4.836 4.836 0 0 1 1.24-3.115l2.624-2.347.688-.704-.411 2.151-.828 2.192v3.12l1.405 1.561.927.22.728.36 1.26-.615 1.006.583.918-.225.699-.36 1.15.615.438-.25.796-.189 1.406-.874.688-2.54a9.974 9.974 0 0 0-.987-3.45z"/></g><g><path fill="#070606" d="M25.987 21.444l.778-2.116.757 2.1 2.091-.956-.686 1.455-.263.58 2.09.762-.008.021-2.07.722.224.559.707 1.495-2.08-.945-.768 2.09-.768-2.1-2.045.956.952-2.054-2.152-.743 2.152-.743-.952-2.044z"/></g><g><path fill="#77490e" d="M12.359 21.218l1.4-1.281v19.73c-.35 1.282-.656 2.547-1.125 3.787l-.275-.437-1.141 1.386-.01-.765.13-.62-.13-.505c.01-7.436 0-14.872.01-22.298z"/></g><g><path fill="#77490e" d="M39.762 19.937l1.39 1.28 1.146-1.026c.01 3.192.014 6.386.01 9.581 0 5.425-.003 10.862-.01 16.31l-.656-.906-1.037-2.54-.843-2.979z"/></g><g><path fill="#77490e" d="M8.209 20.165l1.109.985.13.02 1.094-1.005c-.01 5.973 0 11.943-.01 17.93l-.578.484-.484-1.515-.755.64-.484-.719c-.022-5.592-.022-11.21-.022-16.82z"/></g><g><path fill="#77490e" d="M47.12 21.218l1.14-1.037c0 5.718.01 11.435 0 17.159l-.437.886-.5.754-.255.323v.407l-.505.262-.088.714-.432.406.053.448-.131.203c-.042-2.422-.01-4.843-.01-7.275 0-4.76-.022-9.524 0-14.258l.218.131z"/></g><g><path fill="#77490e" d="M5.26 20.212l1.126 1.006 1.156-1.006v12.785l-.263-.761-.838.787-.474-1.25-.323-.457-.38-.114z"/></g><g><path fill="#77490e" d="M42.99 20.191l1.12 1.027 1.172-1.006v22.774l-.052.224-1.432 2.756-.86.714.042-2.291c.01-8.065 0-16.131.01-24.198z"/></g><g><path fill="#f0f817" d="M21.565 20.426l.198-.1-.375 1a10.268 10.268 0 0 0-1.14 3.584l.577 2.4 1.672 1.334.891.124.9.394 1.022-.516.582.23.9.349.855-.38.542-.204.948.525 1.13-.417.932-.162 1.546-1.38.473-2.64-1.042-3.114-.426-1.104.166.068 2.183 2.281.88 2.213-.603 2.85-2.38 2.26-1.452.583.99 2.218-2.031.729-.677.709-.594 2.505-.061 2.114.302 2.38 1.212 1.067.574.693-.355.593-1.13.537-1.312.854h-1.41l-1.256-.823-1.265-.614-.262-.63.666-.656 1.099-.985.297-1.952a17.232 17.232 0 0 0-.263-4.047l-.604-1.349-.86-.635-1.635-.495 1-2.218-2.374-1.192-1.837-2.561-.224-1.823 1.364-2.964z"/></g><g><path fill="#113e19" d="M1.883 27.907l1.103.865.214 1.359-1.093-.896z"/></g><g><path fill="#113e19" d="M3.845 28.137l.514 1.516-.341 1.2-.394-1.892z"/></g><g><path fill="#f0f817" d="M53.677 28.121v1.058l-.931-.457z"/></g><g><path fill="#f0f817" d="M52.636 29.184l.747.549-.82.214z"/></g><g><path fill="#fff" d="M53.58 29.485l.346-.051v2.07l-.93-1.216.463-.209z"/></g><g><path fill="#f0f817" d="M15.775 31.442l2.522-1.476 2.293 1.394-1.606 1.023-.687.676-.28-.263-1.728-1.068z"/></g><g><path fill="#f0f817" d="M32.985 31.335l2.243-1.367 2.527 1.475-2.12 1.252-.418.366-2.23-1.668z"/></g><g><path fill="#113e19" d="M1.238 30.05l1.297.385.686 1.14-1.296-.545z"/></g><g><path fill="#f0f817" d="M50.856 30.171l1.393.025-.911.285-.38 1.969-.597 1.063-.305-.326.748-.95z"/></g><g><path fill="#f0f817" d="M51.623 30.566l.88-.224.331.762-.218.386-1.114 1.261-.545 1.124-.458-.229.681-1.28.32-1.527z"/></g><g><path fill="#f0f817" d="M52.793 30.476l.83 1.068-1.587 1.181-.394.687-.07.54-.394-.052.208-.525.407-.752 1.19-1.19.082-.204z"/></g><g><path fill="#19338f" d="M19.628 32.56l2.395-1.265-1.02 1.874 2.145.525.98.75.666 2.125.026 2.48-.198 1.452-.516 1.006-1.098.787-.021 1.485 1.375.754 1.444 1.027 1.823.042 1.302-.897 1.54-.896.042-1.495-1.431-1.281-.384-2.39.048-2.239.645-1.958 1.395-.927 1.729-.333-1.042-1.89 1.677.818 2.03 1.526a22.726 22.726 0 0 1 3.859-2.223c.042 2.947 0 5.88.021 8.806l-.698 1.365-3.136 1.921c-2.056.985-4.207 1.838-6.29 2.797l-2.197 1.411-1.313-.974-3.109-1.443c-1.365-.588-2.707-1.157-4.025-1.776l-2.625-1.495-1.05-1.12-.177-.619v-8.88a22.52 22.52 0 0 1 3.88 2.223z"/></g><g><path fill="#113e19" d="M5.792 32.418l.153 2.362-.394-.946z"/></g><g><path fill="#f0f817" d="M4.319 32.611l.224.081.757 1.373.453 1.058-.152.081-.554-.732-.665-1.424z"/></g><g><path fill="#113e19" d="M6.434 34.472l.605-1.302.458 1.414-.426 1.25-.361.418z"/></g><g><path fill="#f0f817" d="M50.179 33.985l.686.427-.1.235-1.16 1.968-1.197 2.298-.228.229-.386-.198.03-.305 1.292-2.476.778-1.644z"/></g><g><path fill="#070606" d="M22.118 35.153l1.033-1.05 1.098 1.05-1.058 1.012z"/></g><g><path fill="#070606" d="M30.342 34.065l1.057 1.058-1.067 1.042-1.05-1.033z"/></g><g><path fill="#113e19" d="M2.431 34.189l1.907.525.697.656-1.937-.525z"/></g><g><path fill="#f0f817" d="M23.182 35.679l-.543-.543.532-.533.543.543z"/></g><g><path fill="#f0f817" d="M30.352 34.585l.545.559-.545.525-.564-.54z"/></g><g><path fill="#113e19" d="M2.661 35.49l1.444.225 1.042.828-1.292-.106z"/></g><g><path fill="#77490e" d="M6.856 36.821l.686-.824v1.211l-.469.132z"/></g><g><path fill="#070606" d="M22.191 36.183l1.865.355.355.323.28 1.54-.13 1.948-1.771 1.807a14.556 14.556 0 0 0-.042-3.806z"/></g><g><path fill="#070606" d="M29.566 36.51l1.744-.328a12.09 12.09 0 0 0-.667 5.092l.088.881-1.682-1.551-.204-1.21.053-1.785.349-.974z"/></g><g><path fill="#070606" d="M17.388 37.646l1.266-1.058 1.242 1.17.787-.316 1.262.732-.204 1.302-.513.381.656 1.181-1.475 1.11-.798-.464-.717.93-1.413-.244-.152-1.575-.996-.295-.336-1.444 1.505-.68z"/></g><g><path fill="#77490e" d="M5.26 36.848l.585-.107.423.947-.545.345-.463.193z"/></g><g><path fill="#f0f817" d="M29.583 36.973l1.037-.213-.372 2.4-.09 1.969-.748-.865-.132-1.5z"/></g><g><path fill="#f0f817" d="M22.883 36.773l1.056.203.308 1.786-.12 1.444-.787.927a16.585 16.585 0 0 0-.457-4.36z"/></g><g><path fill="#f0f817" d="M17.957 37.442l1.027-.295.596 1.235-1.465.31-.23-.13z"/></g><g><path fill="#070606" d="M32.914 37.81l2.14-.225 1.97 1.444-1.872.148-1.435 1.684.377 1.923-1.932-1.242-.494-2.075z"/></g><g><path fill="#77490e" d="M7.349 37.87l.193.131v.341z"/></g><g><path fill="#f0f817" d="M19.68 38.42l.942-.564.9 1.139-.975.737z"/></g><g><path fill="#f0f817" d="M6.754 37.93l.214.076.474.83 1.05 2.116.131.452-.29-.046-.58-1.144-.905-1.861z"/></g><g><path fill="#113e19" d="M8.814 38.429l.442-.508.274 1.302-.371.732-.163.865-.596-.879z"/></g><g><path fill="#f0f817" d="M32.811 38.54l2.447-.262.346.183-2.212 1.657-.285 1.545-.89-1.444z"/></g><g><path fill="#77490e" d="M6.388 38.51l.122-.336.962 2.04.071.316-.757-.382-1.505-.07-.02-.961.525.147z"/></g><g><path fill="#f0f817" d="M16.473 39.243l1.505-.407-.1 1.575-.768.081z"/></g><g><path fill="#113e19" d="M9.369 41.142l1.001-2.279.101 1.893-.88 1.343z"/></g><g><path fill="#f0f817" d="M47.31 39.252l.89.51-.06.13-.901-.269z"/></g><g><path fill="#f0f817" d="M19.509 41.043l1.033-1.215.757.525-.545 1.313z"/></g><g><path fill="#f0f817" d="M46.844 40.026l.982.499-.163.371-.946-.36z"/></g><g><path fill="#77490e" d="M47.969 40.158l.291-.151v12.89l-.775-.673-1.146-1.521-.38-1.167V44.49l.073-.569 1.05-2.005.393-.214.058-.49.495-.458z"/></g><g><path fill="#113e19" d="M5.474 40.27l1.805.448 1.134 1.21-.83-.394-1.18-.09z"/></g><g><path fill="#f0f817" d="M17.561 40.916l.366-.422 1.495.57-.131.705-1.205.361z"/></g><g><path fill="#77490e" d="M5.26 40.637l.778.824-.778.274z"/></g><g><path fill="#f0f817" d="M46.41 41.017l.83.28-.06.351-.839-.325z"/></g><g><path fill="#77490e" d="M9.5 42.547l1.032-.884v.808l-.88.361z"/></g><g><path fill="#113e19" d="M6.47 41.765l1.86.54.062.168-1.647.219-1.321-.61.04-.082z"/></g><g><path fill="#f0f817" d="M46.105 41.949l.614.021-.208.577c-.693 1.365-1.411 2.718-2.12 4.089l-.063 1.214-.828 1.037-.919-.318-.114-.834.728-.905.71-.625c.716-1.417 1.476-2.856 2.2-4.256z"/></g><g><path fill="#77490e" d="M5.26 42.397l1.36.536h.92v2.85l-.745-.069.744 1.26.021.48-.719.243.698.548v1.41l-.286.92-1.333 1.76-.656.561c-.014-3.49-.003-7-.003-10.5z"/></g><g><path fill="#070606" d="M24.432 42.782h.787l.27.676-.555.183-1.19-.244-.03-.388z"/></g><g><path fill="#070606" d="M28.256 42.777l.28-.035 1.05.157.29.255-.168.269-1.115.219-.544-.168z"/></g><g><path fill="#77490e" d="M8.228 42.915l.443-.131.214.544-.657.437z"/></g><g><path fill="#f0f817" d="M9.16 42.777l.33.341 1.283 2.742 1.414 3.036.173.6-.432-.508-1.322-2.594-1.073-2.42z"/></g><g><path fill="#77490e" d="M9.886 43.302l.656.417-.01 1.022-.386-.814z"/></g><g><path fill="#113e19" d="M11.793 44.252l.463-.513.101.183.356 1.816-.616.738-.173.548-.583-1.581z"/></g><g><path fill="#77490e" d="M9.028 43.927h.168l1.256 2.69-1.237-.493-1.006-.25v-.864l.716-.448z"/></g><g><path fill="#77490e" d="M33.22 45.203l2.858-1.333.982 1.525-.932-.182-.163.91-.849-.431-.32 1.098z"/></g><g><path fill="#77490e" d="M17.459 43.886l2.837 1.313-1.592 1.597-.285-1.063-.86.401-.173-.918-.935.198z"/></g><g><path fill="#113e19" d="M12.613 46.322l1.129-.996-.28 1.484-1.155.925z"/></g><g><path fill="#77490e" d="M44.62 46.636l.656-1.26c.01 1.739 0 3.49 0 5.25L43.7 49.089l.854-1.13z"/></g><g><path fill="#de0a00" d="M16.713 45.964l.244-.088.244 1.01.844-.573.12.656c-1.088 1.423-2.172 2.887-3.27 4.331l-.678 1.463-.354-.468.031-.693-.787.307.802-1.313-.76.27-1.199.204-.918.448-.193-.386.73-.614 1.212-.344 1.181-.109c.944-1.377 1.834-2.747 2.751-4.101z"/></g><g><path fill="#de0a00" d="M36.547 45.876l.262.088 2.521 3.806.394.417 1.4-.031 1.125.568.453.468-.203.308-.323-.12-1.244-.468-.876-.104-.447-.209.787 1.339-.76-.307.021.724-.349.416-.51-1.239c-.974-1.265-1.927-2.572-2.906-3.863l-.548-.745.132-.598.802.516.15-.132z"/></g><g><path fill="#113e19" d="M7.583 46.27l2.887.788.697.692-2.477-.356z"/></g><g><path fill="#070606" d="M29.236 46.97l.667-.313.458.974a59.023 59.023 0 0 0 2.927 5.3l2.385 3.229 2.828 2.255c-1.667.744-3.332 1.505-4.952 2.39a40.842 40.842 0 0 1-2.551-3.443l-.9-1.312.393 1.395a34.11 34.11 0 0 0 2.12 3.88 29.12 29.12 0 0 0-3.675 2.353l-2.183 2.244h-.078l.073-.016-2.125-2.197a31.805 31.805 0 0 0-3.734-2.39l.5-.817c.7-1.09 1.3-2.24 1.792-3.438l.239-1.016c-1.099 1.625-2.192 3.245-3.453 4.76a68.802 68.802 0 0 0-4.968-2.39l2.39-1.77a25.465 25.465 0 0 0 3.14-4.213 57.007 57.007 0 0 0 3.084-5.795l.656.307a56.43 56.43 0 0 1-2.828 5.744 26.634 26.634 0 0 1-2.808 4.15l-1.484 1.48 2.723 1.005a33.988 33.988 0 0 0 3.197-4.448 22.27 22.27 0 0 0 2.26-5.348l.12 1.26-.443 3.103a25.554 25.554 0 0 1-2.405 6.694l3.17 1.88.974.833a17.264 17.264 0 0 1 4.166-2.713 23.39 23.39 0 0 1-1.823-4.422 26.126 26.126 0 0 1-1.02-5.03l.097-1.651a21.736 21.736 0 0 0 2.267 5.364 34.133 34.133 0 0 0 3.208 4.474l2.718-1.006a13.675 13.675 0 0 1-2.74-3.125 42.103 42.103 0 0 1-2.887-5.035z"/></g><g><path fill="#77490e" d="M24.269 46.943l1.698 1.068.788.802 1.12-1.067 1.364-.776 1.49 3.186a42.097 42.097 0 0 0 2.887 5.035 13.682 13.682 0 0 0 2.74 3.125l-2.719 1.006a34.099 34.099 0 0 1-3.208-4.473 21.732 21.732 0 0 1-2.265-5.364l-.098 1.651a26.118 26.118 0 0 0 1.02 5.03 23.383 23.383 0 0 0 1.824 4.422 17.264 17.264 0 0 0-4.166 2.713l-.974-.833-3.17-1.88a25.55 25.55 0 0 0 2.405-6.693l.442-3.104-.119-1.26a22.267 22.267 0 0 1-2.26 5.348 33.964 33.964 0 0 1-3.197 4.447l-2.723-1.006 1.484-1.479a26.663 26.663 0 0 0 2.807-4.15 56.464 56.464 0 0 0 2.83-5.748z"/></g><g><path fill="#113e19" d="M7.823 47.817l2.15.157 1.023.626-2.059.082z"/></g><g><path fill="#77490e" d="M8.209 48.682l1.454.54-1.435 1.402z"/></g><g><path fill="#f0f817" d="M42.15 49.175l.879.423-.204.525-.951-.467z"/></g><g><path fill="#de0a00" d="M11.168 51.788l.421-.36.144.203-.443.355z"/></g><g><path fill="#de0a00" d="M41.723 51.553l.163-.168.468.412-.102.225z"/></g><g><path fill="#de0a00" d="M11.977 51.753l.33.488-.987.844-.477-.315.594-.559z"/></g><g><path fill="#de0a00" d="M41.157 52.2l.376-.447.472.394.646.564-.341.407-.305-.173z"/></g><g><path fill="#de0a00" d="M12.46 52.404l.433.417-.575.488-.534.437-.402-.325.402-.458z"/></g><g><path fill="#de0a00" d="M40.766 52.384l.412.097.89.788-.394.442-.976-.824z"/></g><g><path fill="#de0a00" d="M12.226 53.676l.87-.713.437.29-.417.493-.656.54-.473-.276z"/></g><g><path fill="#de0a00" d="M40.176 52.994l.366.052.89.762-.204.513-.262-.106-.865-.732z"/></g><g><path fill="#f0f817" d="M14.067 55.55l.361-1.454 1.327.742-.325 1.455z"/></g><g><path fill="#f0f817" d="M39.47 54.353l.86.355-.362.147z"/></g><g><path fill="#f0f817" d="M38.916 54.854l1.291.63-.117.163-1.155.803z"/></g><g><path fill="#f0f817" d="M25.123 6.09l-.672-.696.697-.671.671.696z"/></g><g><path fill="#070606" d="M25.443 5.413l-.31.326-.316-.326.317-.316z"/></g><g><path fill="#f0f817" d="M20.057 39.7l-.94.92-.931-.92.93-.91z"/></g><g><path fill="#f0f817" d="M8.402 37.594l-.347.347-.371-.347.371-.34z"/></g><g><path fill="#f0f817" d="M10.7 43.422l-.35-.352.351-.352.352.352z"/></g><g><path fill="#f0f817" d="M6.079 38.642l-.356.336-.35-.336.35-.345z"/></g><g><path fill="#f0f817" d="M8.65 44.373l-.34.341-.356-.341.356-.35z"/></g><g><path fill="#f0f817" d="M13.772 48.894l-.36.367-.346-.367.345-.325z"/></g><g><path fill="#f0f817" d="M11.039 50.153l-.349-.348.348-.348.348.348z"/></g><g><path fill="#f0f817" d="M2.902 33.219l-.34-.36.36-.34.34.36z"/></g><g><path fill="#f0f817" d="M5.589 31.829l-.35.335-.356-.335.356-.347z"/></g><g><path fill="#f0f817" d="M26.755 20.806l.473 1.321 1.313-.6-.626 1.272 1.362.467-1.362.478.626 1.282-1.313-.62-.473 1.348-.5-1.348-1.29.62.626-1.282-1.384-.478 1.384-.467-.627-1.272 1.292.6z"/></g></g></g></svg>