<svg xmlns="http://www.w3.org/2000/svg" width="40" height="50"><path fill="none" stroke="#333" stroke-miterlimit="20" stroke-width="2.5" d="M25.827 39.839h-2.13c-.984 3.056-3.235 2.989-3.552 6.916-2.036 2.143-2.169 1.372-3.552 0-3.129-4.785 2.685-14.107 0-20.119-.782-1.75-3.146-1.856-4.263-3.144-3.846-4.425-4.444-10.138-7.815-15.086-.994-1.46-1.8-2.76-2.842-4.4-.195-1.614 6-1.037 9.236 0 1.756.731 5.9 3.543 7.815 4.4 2.111.946 2.606-1.2 4.973 0 .475.837.946 1.678 1.421 2.515.939.475 2.015-.426 3.552.629a57.212 57.212 0 00-.711 6.916c3.1 1.56 4.2.731 4.263 5.03 1.322 1.487 4.328 4.09 4.973 5.658-.236 1.049 1.657 2.095 1.421 3.144.372 1.363-.236 1.823-2.131 1.886a9.44 9.44 0 01-5.684-1.886c-1.151 1.176-.41 1.191-2.842 1.886.15-2.1.82 1.007-1.421 0-.926 1.52-1.281-.734-1.421 1.886.867 1.345.986 1.738.71 3.769z"/><path fill="#fff" d="M23.654 21.468a84.965 84.965 0 01-3.007-4.347c-3.34-5.193-3.839-7.487-3.839-8.392a6.854 6.854 0 016.846-6.846A6.854 6.854 0 0130.5 8.729c0 .907-.5 3.204-3.849 8.408a84.945 84.945 0 01-2.997 4.331z"/><path fill="#3eb549" d="M23.654.633a8.096 8.096 0 018.096 8.096c0 4.472-8.096 14.815-8.096 14.815S15.558 13.201 15.558 8.73A8.096 8.096 0 0123.654.633zm0 2.5a5.603 5.603 0 00-5.596 5.596c0 .482.262 2.46 3.63 7.7a78.947 78.947 0 001.966 2.906A79.134 79.134 0 0025.6 16.46c3.387-5.262 3.65-7.248 3.65-7.73z"/><path fill="#333" d="M22.521 8.603a1.741 1.741 0 113.482 0 1.741 1.741 0 01-3.482 0z"/></svg>