<svg xmlns="http://www.w3.org/2000/svg" width="43" height="35"><path fill="#333" d="M24.112 34.566c-.92 0-1.909-.141-3.041-.495-3.395-1.06-7.352-3.816-11.948-8.412C.285 16.678-2.049 9.961 2.335 5.578 5.657 2.255 8.132.982 8.273.982a1.77 1.77 0 01.792-.19c.484 0 .965.205 1.329.616l5.869 6.576c.494.566.566 1.414.212 2.049l-2.403 4.03c.426.706 1.274 2.049 2.97 3.747 1.695 1.696 3.04 2.547 3.747 2.97l4.03-2.475a1.5 1.5 0 01.845-.252c.432 0 .869.17 1.204.464l6.576 5.87c.566.565.779 1.413.425 2.12-.071.072-1.342 2.616-4.595 5.938a7.16 7.16 0 01-5.162 2.121zm.076-2.5c1.294-.018 2.407-.482 3.31-1.38 1.104-1.13 2.63-2.85 3.844-4.825l-5.727-5.112-3.517 2.16-1.291.793-1.3-.777c-.945-.565-2.412-1.526-4.235-3.349-1.804-1.807-2.771-3.277-3.342-4.225l-.772-1.283.767-1.286 2.11-3.54-5.15-5.77-.022.01H8.86c-.69.405-2.439 1.545-4.758 3.864-.736.736-1.175 1.526-1.341 2.416-.178.95-.051 2.07.377 3.326 1.009 2.965 3.62 6.602 7.76 10.81 4.225 4.224 7.898 6.844 10.918 7.787.82.256 1.571.38 2.296.38h.076z"/><path fill="#3eb549" d="M23.619 8.56a2.439 2.439 0 114.878 0 2.439 2.439 0 01-4.878 0zm6.943 0a2.439 2.439 0 114.878 0 2.439 2.439 0 01-4.878 0zm6.942 0a2.439 2.439 0 114.878 0 2.439 2.439 0 01-4.878 0z"/></svg>