<svg xmlns="http://www.w3.org/2000/svg" width="61.836" height="49.776"><defs><style>.a{fill:#287dc3}</style></defs><path class="a" d="M30.612 12.559c0 .3-.013.6-.031.9-.013.133-.026.261-.038.4-.02.166.064.166.005-.031.02.064-.031.2-.038.261a11.311 11.311 0 01-.4 1.638c-.082.256-.179.512-.282.763-.09.225.031-.056.031-.072a.8.8 0 01-.1.23c-.056.128-.123.256-.184.384a11.617 11.617 0 01-.87 1.438c-.038.056-.256.363-.146.2s-.123.146-.159.2a10.929 10.929 0 01-1.155 1.21c-.1.082-.184.166-.287.251-.051.046-.107.09-.159.133-.02.02-.046.031-.064.051-.107.082-.09.072.056-.046-.038.082-.269.2-.338.251-.09.064-.184.128-.276.192-.243.159-.5.315-.755.456-.235.128-.473.251-.717.363-.051.026-.1.046-.154.072-.269.128.269-.1-.005.005l-.4.154a10.346 10.346 0 01-1.658.461c-.128.026-.256.051-.384.072a.784.784 0 01-.218.031c.154.038.225-.026.077-.013-.294.031-.589.056-.883.072a11.59 11.59 0 01-1.786-.072c-.243-.026.064.02.077.013-.056.02-.2-.031-.261-.038-.128-.02-.256-.046-.384-.072a14.628 14.628 0 01-.839-.2 13.929 13.929 0 01-.773-.251l-.4-.154c-.154-.056-.031.046.072.031-.056.005-.174-.077-.23-.1a11.3 11.3 0 01-1.471-.819c-.1-.072-.21-.141-.315-.21-.077-.051-.269-.141-.307-.225.046.031.082.064.128.1a1.74 1.74 0 00-.1-.077c-.051-.046-.107-.09-.159-.133-.115-.1-.235-.2-.345-.3a11.184 11.184 0 01-1.131-1.177c-.046-.051-.09-.107-.133-.159-.005-.013-.02-.02-.026-.031-.082-.107-.072-.09.046.056-.082-.038-.174-.23-.225-.307a11 11 0 01-1.028-1.791c-.026-.051-.046-.1-.072-.154-.115-.251.09.23-.005-.005a12.5 12.5 0 01-.525-1.633c-.056-.256-.115-.512-.154-.768a.769.769 0 01-.038-.261c-.005.02.038.32.013.077-.02-.159-.031-.32-.046-.486a10.459 10.459 0 01.01-1.759c.013-.146.026-.294.046-.44s-.051-.077-.013.077a.929.929 0 01.031-.218c.051-.3.107-.6.179-.9a11.523 11.523 0 01.507-1.548c.107-.282-.123.261.005-.005.026-.051.046-.1.072-.154.056-.128.123-.256.184-.384.128-.251.261-.5.409-.737.128-.218.269-.43.415-.635.051-.072.159-.3.251-.338-.1.046-.146.179-.046.056.064-.077.123-.154.184-.23a11.953 11.953 0 011.131-1.172c.1-.1.21-.184.32-.276.051-.038.358-.269.2-.159s.146-.107.2-.146c.133-.1.276-.192.415-.282a11.477 11.477 0 011.4-.773c.046-.02.184-.115.23-.1-.013 0-.294.115-.072.031l.4-.154c.269-.1.543-.184.819-.261.251-.072.507-.128.755-.184a6.24 6.24 0 01.43-.077c.072-.013.146-.02.218-.031.123-.02-.294.031.005 0a11.286 11.286 0 011.74-.064c.282.013.563.031.845.064.09.013.294.064-.031-.005a1.3 1.3 0 00.174.026c.174.026.345.056.512.1a11.6 11.6 0 011.612.461c.123.046.235.09.358.141.269.1-.2-.1-.031-.013.064.031.128.056.192.09.256.115.507.243.755.384.23.128.461.269.686.415.1.072.21.141.315.21.056.038.115.082.174.123.031.026.072.051.1.077.107.082.09.064-.056-.046a2.31 2.31 0 01.576.486 11.399 11.399 0 011.155 1.21c.064.077.179.166.21.261-.031-.046-.064-.082-.1-.128.031.046.072.09.1.133.051.072.1.133.146.2a11.71 11.71 0 01.845 1.407c.056.115.115.23.166.345.031.064.056.128.09.192.082.166-.115-.3-.013-.031s.2.532.294.8a11.858 11.858 0 01.4 1.684 1.429 1.429 0 00.026.174c-.064-.307-.02-.159-.013-.077.013.146.031.294.046.44a6.585 6.585 0 00-.028.857 1.28 1.28 0 102.559 0 12.528 12.528 0 00-2.29-7.222 12.878 12.878 0 00-6.04-4.606A12.63 12.63 0 0010.939 4.51a12.788 12.788 0 00-2.866 7.157 12.543 12.543 0 007.237 12.292 12.887 12.887 0 007.831.916 12.606 12.606 0 009.847-10.236 14.771 14.771 0 00.179-2.065 1.277 1.277 0 00-2.554-.013zm22.666 3.546c0 .21-.005.415-.026.627-.005.1-.02.2-.026.307-.031.32.038-.21-.013.1a8.011 8.011 0 01-.294 1.216c-.064.192-.128.379-.2.563-.082.21.107-.225-.02.046-.051.1-.1.2-.146.307a8.005 8.005 0 01-.627 1.044c-.046.064-.128.23-.2.269-.005.005.174-.2.072-.1a1.74 1.74 0 00-.077.1 6.306 6.306 0 01-.448.5 5.3 5.3 0 01-.422.4c-.064.056-.128.107-.192.166-.046.038-.082.072-.128.107-.179.154.159-.107.026-.02a10.177 10.177 0 01-1.019.66c-.174.1-.345.184-.525.269-.038.02-.077.031-.115.051-.154.082.23-.09.072-.031-.107.038-.21.082-.32.123a7.845 7.845 0 01-1.2.333c-.1.02-.2.038-.3.051-.3.051.184-.013-.051.005-.218.026-.44.046-.665.051a9.493 9.493 0 01-1.292-.051c-.235-.026.251.038-.051-.005-.1-.02-.2-.031-.3-.051-.21-.046-.422-.1-.627-.154s-.384-.115-.568-.184c-.1-.031-.184-.072-.276-.107-.174-.064.031.046.072.031a.519.519 0 01-.154-.072 10.1 10.1 0 01-1.07-.589c-.166-.107-.32-.225-.481-.338-.141-.1.184.159.064.046a1.74 1.74 0 00-.1-.077c-.082-.072-.174-.141-.256-.218a8.157 8.157 0 01-.839-.87c-.038-.046-.072-.09-.107-.128-.1-.107.077.1.072.1-.064-.038-.128-.174-.174-.235-.123-.174-.235-.345-.345-.525s-.2-.338-.287-.512a7.69 7.69 0 01-.128-.261c-.026-.051-.046-.1-.072-.154-.077-.146.115.3.013.031a8.672 8.672 0 01-.363-1.139c-.046-.2-.09-.4-.123-.6a.693.693 0 01-.026-.174c-.005.005.038.333.013.077a5.086 5.086 0 01-.031-.353 8.379 8.379 0 01.005-1.292c.005-.1.02-.2.031-.307.026-.235-.046.276.005-.051.031-.21.077-.43.128-.64a9.579 9.579 0 01.384-1.177c.051-.133-.046.115-.046.107a.725.725 0 01.072-.154c.038-.09.082-.179.128-.269.1-.184.2-.371.307-.55s.21-.333.32-.491c.056-.077.115-.159.174-.235l-.072.1c-.005-.02.115-.141.133-.159a8.159 8.159 0 01.839-.87 6.418 6.418 0 01.325-.269c.174-.146-.051.031-.064.046a1.967 1.967 0 01.512-.363 7.232 7.232 0 011.07-.589.88.88 0 01.154-.072c.005 0-.243.1-.107.046.1-.031.184-.072.276-.107A7.935 7.935 0 0144.77 9.1c.1-.02.2-.038.3-.056a1.237 1.237 0 00.174-.026c-.064.02-.256.031-.077.013a10.106 10.106 0 011.336-.051c.192.005.384.026.576.046.333.038-.184-.031.051.005.115.02.23.038.345.064a7.463 7.463 0 011.241.353c.077.031.159.064.235.09.23.09-.064-.031-.072-.031a.953.953 0 01.154.072c.192.09.379.184.563.287s.338.2.507.3c.133.09.43.225.512.363.005.005-.2-.166-.1-.072.038.038.09.072.128.107.077.064.146.128.225.192.154.141.307.282.448.435s.261.287.389.435c.026.031.051.064.077.1.09.1.09.026-.046-.064a1.286 1.286 0 01.2.269 9.1 9.1 0 01.627 1.044c.046.09.09.179.128.269.02.038.031.077.051.115.077.154-.09-.235-.031-.072.072.2.154.4.218.6a8.669 8.669 0 01.294 1.216c.051.3-.013-.184.005.051.013.1.02.2.031.307.015.2.023.42.023.642a1.28 1.28 0 002.559 0 9.7 9.7 0 00-17.132-6.238 9.952 9.952 0 00-2.252 5.528 9.681 9.681 0 005.571 9.512 9.954 9.954 0 006.1.7 9.726 9.726 0 007.554-7.877 10.726 10.726 0 00.146-1.623 1.29 1.29 0 00-1.28-1.28 1.3 1.3 0 00-1.27 1.28zM38.633 41.226v4.2c0 .2-.005.389-.005.589 0 .294.077-.276 0 .005l-.038.166a1.6 1.6 0 01-.077.243s.141-.261.005-.038c-.038.056-.064.123-.1.184-.013.026-.031.046-.046.072-.077.115-.064.1.051-.056.02.056-.307.32-.345.358-.2.192.235-.133-.005 0a.877.877 0 00-.141.09 1.044 1.044 0 01-.225.115c.051-.02.1-.046.146-.064-.051.02-.107.038-.159.056s-.107.031-.166.046a1.222 1.222 0 00-.082.02c-.141.026-.115.02.082-.005a1.126 1.126 0 01-.269.013h-.1c-1.812.005-3.621 0-5.43 0H3.857a.541.541 0 01-.09-.005c-.141-.013-.115-.005.077.013a.982.982 0 01-.21-.046 1.524 1.524 0 00-.2-.056c-.276-.072.243.141-.005 0a1.864 1.864 0 01-.184-.1c-.038-.02-.072-.046-.107-.064-.115-.077-.1-.064.056.051-.051.013-.261-.235-.3-.282a.457.457 0 01-.056-.064c-.09-.107-.072-.082.046.064a1.1 1.1 0 01-.133-.21 3.892 3.892 0 00-.077-.146c-.141-.251.072.269 0-.005-.02-.082-.051-.159-.072-.251a1.222 1.222 0 00-.02-.082c-.026-.141-.02-.115.005.082a3.476 3.476 0 01-.013-.64V41.24c0-.269.005-.537.026-.806.013-.179.026-.353.046-.532.005-.056.013-.115.02-.174.02-.141.013-.115-.013.077.005-.056.02-.115.026-.174a12.188 12.188 0 01.43-1.855c.09-.287.184-.568.294-.85.026-.064.051-.133.077-.2.107-.282-.123.261.005-.005.072-.154.141-.307.21-.461a13.344 13.344 0 01.926-1.607c.077-.115.159-.23.243-.345a.8.8 0 01.146-.2c-.031.046-.064.082-.1.128.031-.046.072-.09.1-.133.192-.235.389-.473.6-.7a13.055 13.055 0 011.344-1.259.831.831 0 01.2-.154c-.276.128-.082.064.005 0 .115-.082.225-.166.338-.243a9.605 9.605 0 01.819-.517c.256-.146.517-.287.781-.422.128-.064.256-.123.384-.179a.909.909 0 01.23-.1c-.174.072-.2.082-.072.031.051-.02.1-.046.159-.064a12.772 12.772 0 011.8-.555c.282-.064.568-.123.857-.166a1.149 1.149 0 01.261-.038c-.338-.013-.09.013.005 0 .179-.02.353-.038.532-.046.32-.02.64-.031.952-.031h12.8c.294 0 .589.013.891.031.179.013.363.026.543.051.051.005.409.056.09.005.107.02.21.031.32.051a12.238 12.238 0 012.3.619c.082.031.166.064.243.1.046.02.363.159.082.031.159.072.32.141.473.218a11.294 11.294 0 011.1.6c.294.179.583.371.865.576.082.056.174.123.251.184-.225-.192-.051-.038.005.005.159.128.32.261.473.4a12.669 12.669 0 011.454 1.51l.146.184c.123.154-.179-.251 0 .005.1.141.2.282.307.43.2.3.4.614.583.934a13.646 13.646 0 01.561 1.118c.141.3-.1-.256.02.051.072.179.141.358.2.543a13.111 13.111 0 01.532 1.991c.02.1.031.2.051.294.013.064.082.389.013.056a4.511 4.511 0 01.051.5 7.746 7.746 0 01.064 1.1 1.28 1.28 0 002.559 0 14.338 14.338 0 00-3.148-8.885 14.052 14.052 0 00-8.066-4.96 22.268 22.268 0 00-4.517-.307H15.287a18.933 18.933 0 00-4.524.409A14.233 14.233 0 00.219 38.85a34.6 34.6 0 00-.2 5.4c0 .614-.038 1.241.013 1.855a3.969 3.969 0 003.05 3.57 9.814 9.814 0 001.94.1h32.186a3.976 3.976 0 002.9-1.241 4.062 4.062 0 001.049-2.426c.02-.218.013-.435.013-.66v-4.222a1.271 1.271 0 10-2.541.008z"/><path class="a" d="M59.267 37.862v3.972c0 .115-.005.225 0 .338v.11c-.02-.02.072-.243.02-.128a.664.664 0 00-.031.123c-.046.243.005-.09.038-.072 0 0-.051.1-.056.107-.128.251.02-.038.031-.026a1.86 1.86 0 01-.174.174c-.051-.051.243-.141.056-.056a1.083 1.083 0 00-.107.056c-.115.082.107-.072.115-.046 0 .005-.141.038-.159.046-.225.072.251.005-.005-.005H43.587c-1.2 0-2.418-.046-3.629 0h-.056l1.28 1.28a38.312 38.312 0 00-.064-3.834 14.161 14.161 0 00-2.589-6.93 15.368 15.368 0 00-3.05-3.1c.082.67.174 1.336.256 2.009.077-.064.154-.133.23-.2.038-.031.307-.235.056-.051.133-.1.269-.2.409-.294a9.8 9.8 0 011.049-.609c.09-.046.184-.082.276-.128.307-.146-.251.09.072-.031.159-.056.32-.123.481-.174a9.339 9.339 0 011.2-.315 1.585 1.585 0 01.315-.051c-.32.005.02 0 .077-.005.179-.02.353-.031.532-.038.154-.005.307-.013.466-.013h10.564c.179 0 .358.005.537.02a1.592 1.592 0 01.53.051c-.056-.005-.107-.013-.166-.02.056.005.115.02.174.026.082.013.174.031.256.046a4.186 4.186 0 01.422.1 8.26 8.26 0 01.985.3c.082.031.159.064.235.09.269.1-.2-.1-.031-.013.141.072.282.128.422.2a8.456 8.456 0 01.875.507c.141.09.282.184.415.287.026.02.046.031.072.051.107.082.09.064-.056-.046.077.013.2.159.261.21a8.375 8.375 0 01.755.722c.123.133.243.269.358.409.031.046.146.141.159.2-.1-.141-.128-.166-.072-.1a1.185 1.185 0 01.077.1 8.647 8.647 0 01.589.921c.1.174.184.345.276.525.026.051.051.1.072.154s.046.1.072.154c-.072-.174-.082-.2-.031-.072a10.837 10.837 0 01.353 1.054c.046.166.082.338.123.507.02.082.031.174.051.256s.038.481.02.1c.018.386.069.765.069 1.154a1.28 1.28 0 002.559 0 10.47 10.47 0 00-3.608-7.887 10.693 10.693 0 00-6.966-2.546h-9.62a16.469 16.469 0 00-2.354.133 10.439 10.439 0 00-5.328 2.513 1.216 1.216 0 00-.353 1.075 1.347 1.347 0 00.609.934c-.251-.192.051.046.115.1l.325.276c.218.184.422.384.627.589s.379.389.55.589c.082.1.166.192.251.287.038.051.082.1.123.146.026.031.184.251.077.1-.123-.166.064.09.072.1a1.86 1.86 0 01.107.154c.077.1.146.21.218.315a12.64 12.64 0 01.819 1.407c.056.115.115.23.166.345.026.056.051.115.077.174.123.261-.077-.2.02.051a13.716 13.716 0 01.525 1.566c.072.269.133.543.184.819l.07.438a1.226 1.226 0 01.031.2 2.52 2.52 0 00-.02-.141c.005.051.013.1.02.146a18.665 18.665 0 01.082 2.137v1.838a1.3 1.3 0 001.28 1.28h18.457a4.15 4.15 0 001.7-.225 2.878 2.878 0 001.753-2.61c.005-.315 0-.635 0-.952v-3.373a1.293 1.293 0 00-1.28-1.28 1.339 1.339 0 00-1.287 1.3z"/></svg>