<svg xmlns="http://www.w3.org/2000/svg" width="24.372" height="17.461"><g opacity=".25"><path d="M23.506.004H8.733a.985.985 0 00-.17 0l-.076.024-.083.028a.741.741 0 00-.1.059l-.062.034a.937.937 0 00-.132.107L.25 8.13a.865.865 0 000 1.218l7.87 7.873a.922.922 0 00.132.107l.062.034.087.045.087.028.076.021a.984.984 0 00.17 0h14.772a.867.867 0 00.865-.865V.873a.867.867 0 00-.865-.865zM9.094 15.748L2.074 8.74l7.02-7.005h13.543v14.013z"/><path d="M16.858 8.74l3.323-3.323a.866.866 0 00-1.224-1.226l-3.338 3.328-3.327-3.323a.867.867 0 00-1.226 1.226l3.326 3.322-3.323 3.323a.867.867 0 001.223 1.224l3.323-3.323 3.323 3.323a.867.867 0 101.226-1.226z"/></g></svg>