<svg xmlns="http://www.w3.org/2000/svg" width="49.954" height="55.851"><defs><style>.a{fill:#287dc3}</style></defs><path class="a" d="M7.519 29.139v-9.943l-4.975 3.351v3.349zm0-12.951V1.272A1.312 1.312 0 018.904-.004h32.147a1.213 1.213 0 011.268 1.276v14.916l6.938 4.51a1.533 1.533 0 01.694 1.156v32.725a1.283 1.283 0 01-1.272 1.272H1.272A1.213 1.213 0 010 54.579V21.854a1.214 1.214 0 01.578-1.041zm34.8 3.008v9.944l5.091-3.244v-3.348zm-2.54 11.561V2.541H10.06v28.216l14.916 9.6 14.8-9.6zm-37.235-1.85V51.57l13.76-13.76zM18.5 39.196L4.278 53.305H45.56L31.453 39.196l-5.782 3.7a1.47 1.47 0 01-1.388 0l-5.782-3.7zm15.147-1.388l13.76 13.76V28.907z"/><path class="a" d="M15.842 10.751a1.272 1.272 0 110-2.544h11.56a1.272 1.272 0 010 2.544zm0 5.319a1.272 1.272 0 110-2.544h18.269a1.272 1.272 0 010 2.544zm0 5.438a1.272 1.272 0 010-2.544h18.269a1.272 1.272 0 010 2.544z"/></svg>