<svg xmlns="http://www.w3.org/2000/svg" width="63.291" height="63.16"><defs><style>.a{fill:#287dc3}</style></defs><path class="a" d="M63.293 51.293H16.218V17.801h11.867v2.638h-9.229v28.216h41.8V20.439h-7.519v-2.638h10.156zM8.967 50.237H6.594A6.53 6.53 0 010 43.644V17.67a6.53 6.53 0 016.594-6.594h2.373a6.53 6.53 0 016.594 6.594v25.976a6.531 6.531 0 01-6.594 6.591zM6.594 13.714a3.884 3.884 0 00-3.956 3.956v25.976a3.884 3.884 0 003.956 3.956h2.373a3.884 3.884 0 003.956-3.956V17.67a3.884 3.884 0 00-3.956-3.956z"/><path class="a" d="M54.062 25.843H25.977l.265-1.582C27.693 17.01 26.11 9.1 21.759 1.978L20.57 0h28.481l.4.66c4.616 7.647 6.329 16.218 4.747 24.13zm-24.92-2.635h22.812A32.391 32.391 0 0047.6 2.638H25.183a34.815 34.815 0 013.959 20.57zm-3.299 7.777h4.22v2.638h-4.22zm6.989 0h4.225v2.638h-4.22zm7.121 0h4.22v2.638h-4.22zm6.989 0h4.22v2.638h-4.22zm-21.099 5.538h4.22v2.638h-4.22zm6.989 0h4.225v2.638h-4.22zm7.121 0h4.22v2.638h-4.22zm6.989 0h4.22v2.638h-4.22zM25.843 41.93h4.22v2.638h-4.22zm6.989 0h4.225v2.638h-4.22zm7.121 0h4.22v2.638h-4.22zm6.989 0h4.22v2.638h-4.22zm8.173-8.571h2.638v9.893h-2.638z"/><path class="a" d="M29.141 5.142h17.405V7.78H29.141zm2.505 6.065h17.405v2.638H31.646zm.526 6.067h17.274v2.638H32.172zm4.485 45.886a8.446 8.446 0 01-4.087-1.456c-1.187-.66-2.109-1.187-3.165-1.056a12.3 12.3 0 00-1.713.527 8.213 8.213 0 01-3.429.791 6 6 0 01-5.011-2.109l-.791-.791c-.791-.922-1.318-1.451-1.978-1.582-.527-.131-.922.131-1.713.4a6.29 6.29 0 01-2.373.527 3.951 3.951 0 01-3.165-1.318c-1.451-1.713-1.187-4.351-.922-7.251l.262-1.056 2.638.265-.131 1.187c-.265 2.242-.4 4.482.265 5.273a1.453 1.453 0 001.187.4 2.931 2.931 0 001.318-.4 5.449 5.449 0 013.034-.527c1.713.265 2.638 1.451 3.56 2.373a3.524 3.524 0 01.66.791 3.372 3.372 0 003.165 1.318 4.938 4.938 0 002.373-.66 11.218 11.218 0 012.242-.66c1.847-.265 3.429.66 4.747 1.318a5.621 5.621 0 003.165 1.056c.791-.131 1.451-1.056 1.978-2.5.131-.527.4-1.056.527-1.451.131-.527.4-1.056.527-1.713a6.7 6.7 0 012.638-3.3 7.478 7.478 0 001.71-1.852l2.373 1.187a10.785 10.785 0 01-2.242 2.638c-.791.791-1.582 1.318-1.847 2.242a7.339 7.339 0 00-.527 1.582c-.131.527-.4 1.056-.527 1.713-.922 2.373-2.373 3.825-3.956 4.087h-.794z"/></svg>