<svg xmlns="http://www.w3.org/2000/svg" width="27.448" height="28.569"><g opacity=".15"><path d="M10.171 5.04h14.082c.647 0 1.3.01 1.942 0h.027a1.225 1.225 0 000-2.45H12.14c-.647 0-1.3-.01-1.942 0h-.027a1.225 1.225 0 100 2.45zm-8.945 0h3.8a1.225 1.225 0 000-2.45h-3.8a1.225 1.225 0 000 2.45z"/><path d="M7.598 5.166a3.2 3.2 0 01-.341-.022c.108.015.218.031.325.043a2.921 2.921 0 01-.674-.184c.1.039.2.083.294.123a2.764 2.764 0 01-.555-.325l.247.194a2.7 2.7 0 01-.48-.48l.194.247a2.6 2.6 0 01-.325-.555c.039.1.083.2.123.294a2.594 2.594 0 01-.184-.674c.015.108.031.218.043.325a2.869 2.869 0 010-.68c-.015.108-.031.218-.043.325a2.921 2.921 0 01.184-.674c-.039.1-.083.2-.123.294a2.764 2.764 0 01.325-.555l-.194.247a2.7 2.7 0 01.48-.48l-.247.194a2.6 2.6 0 01.555-.325c-.1.039-.2.083-.294.123a2.594 2.594 0 01.674-.184c-.108.015-.218.031-.325.043a2.869 2.869 0 01.68 0c-.108-.015-.218-.031-.325-.043a2.921 2.921 0 01.674.184c-.1-.039-.2-.083-.294-.123a2.764 2.764 0 01.555.325L8.3 2.629a2.7 2.7 0 01.48.48l-.194-.247a2.6 2.6 0 01.325.555c-.039-.1-.083-.2-.123-.294a2.594 2.594 0 01.187.673c-.015-.108-.031-.218-.043-.325a2.869 2.869 0 010 .68c.015-.108.031-.218.043-.325a2.921 2.921 0 01-.184.674c.039-.1.083-.2.123-.294a2.764 2.764 0 01-.325.555l.194-.247a2.7 2.7 0 01-.48.48L8.55 4.8a2.6 2.6 0 01-.555.325c.1-.039.2-.083.294-.123a2.594 2.594 0 01-.674.184c.108-.015.218-.031.325-.043a3.156 3.156 0 01-.339.022 1.273 1.273 0 00-.867.358 1.227 1.227 0 00.867 2.093 3.748 3.748 0 002.122-.652 4.334 4.334 0 00.983-.968 3.785 3.785 0 00-.613-5.055 4.362 4.362 0 00-1.179-.7 3.786 3.786 0 00-3.276.3 3.74 3.74 0 00-1.463 1.6 4.39 4.39 0 00-.247.637 4.57 4.57 0 00-.12.692 3.757 3.757 0 00.07 1.17 3.644 3.644 0 001.217 2.036 4.321 4.321 0 001.252.729 3.578 3.578 0 001.247.211 1.224 1.224 0 100-2.448zm14.519 10.35h4.1a1.225 1.225 0 100-2.45h-4.1a1.225 1.225 0 100 2.45zm-20.891 0h13.8c.637 0 1.274.01 1.911 0h.032a1.225 1.225 0 100-2.45h-13.8c-.637 0-1.274-.01-1.911 0h-.032a1.225 1.225 0 100 2.45z"/><path d="M19.546 15.641a3.2 3.2 0 01-.343-.022c.108.015.218.031.325.043a2.921 2.921 0 01-.674-.184c.1.039.2.083.294.123a2.764 2.764 0 01-.555-.325l.247.194a2.7 2.7 0 01-.48-.48l.194.247a2.6 2.6 0 01-.325-.555c.039.1.083.2.123.294a2.594 2.594 0 01-.184-.674c.015.108.031.218.043.325a2.869 2.869 0 010-.68c-.015.108-.031.218-.043.325a2.921 2.921 0 01.184-.674c-.039.1-.083.2-.123.294a2.764 2.764 0 01.325-.555l-.194.247a2.7 2.7 0 01.48-.48l-.247.194a2.6 2.6 0 01.555-.325c-.1.039-.2.083-.294.123a2.6 2.6 0 01.674-.184c-.108.015-.218.031-.325.043a2.869 2.869 0 01.68 0c-.108-.015-.218-.031-.325-.043a2.92 2.92 0 01.674.184c-.1-.039-.2-.083-.294-.123a2.764 2.764 0 01.555.325l-.247-.194a2.7 2.7 0 01.48.48l-.194-.247a2.6 2.6 0 01.325.555c-.039-.1-.083-.2-.123-.294a2.6 2.6 0 01.184.674c-.015-.108-.031-.218-.043-.325a2.869 2.869 0 010 .68c.015-.108.031-.218.043-.325a2.921 2.921 0 01-.184.674c.039-.1.083-.2.123-.294a2.765 2.765 0 01-.325.555l.194-.247a2.7 2.7 0 01-.48.48l.247-.194a2.6 2.6 0 01-.555.325c.1-.039.2-.083.294-.123a2.594 2.594 0 01-.674.184c.108-.015.218-.031.325-.043a2.887 2.887 0 01-.339.022 1.273 1.273 0 00-.867.358 1.227 1.227 0 00.867 2.093 3.748 3.748 0 002.122-.652 4.334 4.334 0 00.983-.968 3.785 3.785 0 00-.609-5.054 4.361 4.361 0 00-1.179-.7 3.785 3.785 0 00-1.109-.233 3.79 3.79 0 00-3.633 2.134 4.388 4.388 0 00-.247.637 4.569 4.569 0 00-.12.692 3.757 3.757 0 00.07 1.17 3.644 3.644 0 001.217 2.036 4.321 4.321 0 001.252.729 3.578 3.578 0 001.247.211 1.225 1.225 0 00.006-2.449zm-4.472 10.351h9.768c.453 0 .907.01 1.36 0h.022a1.225 1.225 0 000-2.45h-9.77c-.453 0-.907-.01-1.36 0h-.02a1.225 1.225 0 000 2.45zm-13.848 0h8.7a1.225 1.225 0 100-2.45h-8.7a1.225 1.225 0 100 2.45z"/><path d="M12.499 26.118a3.2 3.2 0 01-.337-.025c.108.015.218.031.325.043a2.921 2.921 0 01-.674-.184c.1.039.2.083.294.123a2.765 2.765 0 01-.555-.325l.248.194a2.7 2.7 0 01-.48-.48l.194.247a2.6 2.6 0 01-.325-.555c.039.1.083.2.123.294a2.594 2.594 0 01-.184-.674c.015.108.031.218.043.325a2.87 2.87 0 010-.68c-.015.108-.031.218-.043.325a2.921 2.921 0 01.184-.674c-.039.1-.083.2-.123.294a2.764 2.764 0 01.325-.555l-.194.247a2.7 2.7 0 01.48-.48l-.248.194a2.6 2.6 0 01.555-.325c-.1.039-.2.083-.294.123a2.594 2.594 0 01.674-.184c-.108.015-.218.031-.325.043a2.869 2.869 0 01.68 0c-.108-.015-.218-.031-.325-.043a2.92 2.92 0 01.674.184c-.1-.039-.2-.083-.294-.123a2.764 2.764 0 01.555.325l-.247-.194a2.7 2.7 0 01.48.48l-.194-.247a2.6 2.6 0 01.325.555c-.039-.1-.083-.2-.123-.294a2.594 2.594 0 01.184.674c-.015-.108-.031-.218-.043-.325a2.869 2.869 0 010 .68c.015-.108.031-.218.043-.325a2.92 2.92 0 01-.184.674c.039-.1.083-.2.123-.294a2.764 2.764 0 01-.325.555l.194-.247a2.7 2.7 0 01-.48.48l.247-.194a2.6 2.6 0 01-.555.325c.1-.039.2-.083.294-.123a2.6 2.6 0 01-.674.184c.108-.015.218-.031.325-.043a3.176 3.176 0 01-.339.022 1.273 1.273 0 00-.867.358 1.227 1.227 0 00.867 2.093 3.748 3.748 0 002.122-.652 4.334 4.334 0 00.983-.968 3.785 3.785 0 00-.609-5.054 4.362 4.362 0 00-1.179-.7 3.784 3.784 0 00-1.109-.233 3.79 3.79 0 00-3.637 2.134 4.39 4.39 0 00-.247.637 4.57 4.57 0 00-.12.692 3.757 3.757 0 00.07 1.17 3.644 3.644 0 001.217 2.036 4.321 4.321 0 001.252.729 3.578 3.578 0 001.247.211 1.225 1.225 0 00.006-2.449z"/></g></svg>