<svg xmlns="http://www.w3.org/2000/svg" width="48.259" height="48.295"><path d="M43.803 42.554a4.724 4.724 0 000-6.987l-5.635-5.635a4.707 4.707 0 00-3.466-1.57 4.885 4.885 0 00-3.466 1.57l-3.25 3.25c-.271-.163-.542-.271-.813-.434-.379-.163-.7-.379-1.028-.542a34.424 34.424 0 01-8.4-7.639 18.67 18.67 0 01-2.763-4.389 91.205 91.205 0 002.383-2.33l.868-.868a5.073 5.073 0 001.629-3.52 4.947 4.947 0 00-1.625-3.521l-2.765-2.813a14.96 14.96 0 01-.92-.975c-.6-.65-1.246-1.3-1.9-1.9a4.828 4.828 0 00-3.413-1.517 5.041 5.041 0 00-3.462 1.52L2.256 7.776a7.423 7.423 0 00-2.222 4.712 18.907 18.907 0 001.3 7.584 43.915 43.915 0 007.8 13.056 48.253 48.253 0 0015.978 12.514 24.094 24.094 0 008.993 2.653h.65a7.634 7.634 0 005.851-2.541l.055-.055a18.985 18.985 0 011.788-1.845 10.431 10.431 0 001.354-1.3zm-3.2-.6a23.524 23.524 0 00-1.951 2.059 4.848 4.848 0 01-3.847 1.625h-.487a24.023 24.023 0 01-8.015-2.438 45.439 45.439 0 01-15.057-11.808 42.116 42.116 0 01-7.368-12.243 14.158 14.158 0 01-1.138-6.395A4.957 4.957 0 014.149 9.72l3.466-3.466a2.268 2.268 0 011.57-.757 2.291 2.291 0 011.57.757c.65.6 1.191 1.191 1.841 1.841l.975.975 2.763 2.763a2.341 2.341 0 01.813 1.625 2.341 2.341 0 01-.813 1.625l-.868.868c-.868.868-1.68 1.68-2.546 2.493l-.055.055a2.088 2.088 0 00-.542 2.275c0 .055 0 .055.055.108a21.146 21.146 0 003.305 5.362 37.621 37.621 0 009.046 8.233c.434.271.868.487 1.246.7.379.163.7.379 1.028.542.055 0 .055.055.108.055a2.2 2.2 0 00.975.271 2.181 2.181 0 001.517-.7l3.521-3.521a2.4 2.4 0 011.57-.757 2.407 2.407 0 011.517.757l5.636 5.63a2.077 2.077 0 01-.055 3.25 11.731 11.731 0 01-1.187 1.25zm-15.6-32.12a1.288 1.288 0 011.57-1.083 15.3 15.3 0 018.5 4.441 16.387 16.387 0 014.441 8.5 1.363 1.363 0 01-1.083 1.57h-.216a1.39 1.39 0 01-1.354-1.138 12.735 12.735 0 00-3.684-7.042 13.29 13.29 0 00-7.042-3.684 1.286 1.286 0 01-1.136-1.568zm20.588 11.92a23.492 23.492 0 00-6.5-12.567 23.136 23.136 0 00-12.567-6.5 1.288 1.288 0 01-1.083-1.57 1.313 1.313 0 011.57-1.083 25.93 25.93 0 0121.233 21.229 1.363 1.363 0 01-1.083 1.57h-.216a1.292 1.292 0 01-1.354-1.079z" fill="#287dc3"/></svg>