<svg xmlns="http://www.w3.org/2000/svg" width="11.407" height="11.38"><path d="M1.799.011a.391.391 0 00-.237.016A3.175 3.175 0 00.047 2.41c-.395 2.714 1.752 5.066 3.724 6.612 1.752 1.373 5.112 3.629 7.1 1.452a1.633 1.633 0 00.536-1.057c-.047-.663-.663-1.136-1.136-1.5-.363-.268-1.121-1.01-1.594-.994-.426.016-.694.457-.963.726l-.473.473c-.079.079-1.089-.584-1.2-.663a8.05 8.05 0 01-1.152-.9 7.433 7.433 0 01-.931-1.073 5.467 5.467 0 01-.659-1.151s.552-.6.71-.836c.332-.5.584-.9.2-1.5a3.527 3.527 0 00-.5-.584A9.582 9.582 0 002.667.5 2.213 2.213 0 001.8.011z" fill="#287dc3"/></svg>