<svg xmlns="http://www.w3.org/2000/svg" width="24.372" height="17.461" viewBox="0 0 24.372 17.461"><defs><style>.a{opacity:0.25;}</style></defs><g class="a" transform="translate(-22.006 -22.027)"><path d="M45.512,22.031H30.739a.985.985,0,0,0-.17,0l-.076.024-.083.028a.741.741,0,0,0-.1.059l-.062.034a.937.937,0,0,0-.132.107l-7.86,7.874a.865.865,0,0,0,0,1.218l7.87,7.873a.922.922,0,0,0,.132.107l.062.034.087.045.087.028.076.021a.984.984,0,0,0,.17,0H45.512a.867.867,0,0,0,.865-.865V22.9a.867.867,0,0,0-.865-.865ZM31.1,37.775,24.08,30.767,31.1,23.762H44.643V37.775Z" transform="translate(0 0)"/><path d="M62.666,39.431l3.323-3.323h0a.866.866,0,0,0-1.224-1.226L61.427,38.21,58.1,34.887a.867.867,0,0,0-1.226,1.226L60.2,39.435l-3.323,3.323h0A.867.867,0,0,0,58.1,43.982l3.323-3.323,3.323,3.323h0a.867.867,0,1,0,1.226-1.226Z" transform="translate(-23.802 -8.664)"/></g></svg>