<svg xmlns="http://www.w3.org/2000/svg" width="21" height="16" viewBox="0 0 21 16"><defs><style>.a{fill:#287dc3;}</style></defs><path class="a" d="M38.9,60.5H22.1A2.1,2.1,0,0,1,20,58.4V54h1.4v4.4a.7.7,0,0,0,.7.7H38.9a.7.7,0,0,0,.7-.7V54H41v4.4A2.1,2.1,0,0,1,38.9,60.5Z" transform="translate(-20 -44.5)"/><path class="a" d="M48,23h1.4V34H48Z" transform="translate(-38.2 -23)"/><path class="a" d="M41.733,53.75a.652.652,0,0,1-.489-.211l-3.962-3.962.98-.98,3.473,3.458,3.5-3.456.98.98-3.962,3.962h0a.656.656,0,0,1-.518.211Z" transform="translate(-31.233 -41.588)"/></svg>