<svg xmlns="http://www.w3.org/2000/svg" width="48.639" height="35.039" viewBox="0 0 48.639 35.039"><defs><style>.a{opacity:0.15;}</style></defs><path class="a" d="M45.942,44.61,30.384,30.275,45.942,18.269Zm-1.1-30.629H3.8A3.845,3.845,0,0,0,0,17.9V45.222a3.818,3.818,0,0,0,3.8,3.8H44.84a3.818,3.818,0,0,0,3.8-3.8V17.9A3.844,3.844,0,0,0,44.84,13.981ZM43.248,16.8,27.445,29.05a4.977,4.977,0,0,1-6.249,0L5.514,16.8ZM2.818,18.269,18.131,30.153,2.818,44.489ZM5.023,46.2,20.46,31.867a7.874,7.874,0,0,0,7.717,0L43.615,46.2Z" transform="translate(0 -13.981)"/></svg>