<svg xmlns="http://www.w3.org/2000/svg" width="49.954" height="55.851" viewBox="0 0 49.954 55.851"><defs><style>.a{fill:#287dc3;}</style></defs><path class="a" d="M12.8,29.143V19.2L7.825,22.551V25.9Zm0-12.951V1.276A1.312,1.312,0,0,1,14.185,0H46.332A1.213,1.213,0,0,1,47.6,1.276V16.192l6.938,4.51a1.533,1.533,0,0,1,.694,1.156V54.583a1.283,1.283,0,0,1-1.272,1.272H6.553a1.213,1.213,0,0,1-1.272-1.272V21.858a1.214,1.214,0,0,1,.578-1.041ZM47.6,19.2v9.944L52.691,25.9V22.552ZM45.06,30.761V2.545H15.341V30.761l14.916,9.6,14.8-9.6ZM7.825,28.911V51.574l13.76-13.76ZM23.781,39.2,9.559,53.309H50.841L36.734,39.2l-5.782,3.7a1.47,1.47,0,0,1-1.388,0l-5.782-3.7Zm15.147-1.388,13.76,13.76V28.911Z" transform="translate(-5.281 -0.004)"/><path class="a" d="M32.64,17.243a1.272,1.272,0,1,1,0-2.544H44.2a1.272,1.272,0,0,1,0,2.544Z" transform="translate(-16.798 -6.492)"/><path class="a" d="M32.64,26.766a1.272,1.272,0,1,1,0-2.544H50.909a1.272,1.272,0,0,1,0,2.544Z" transform="translate(-16.798 -10.696)"/><path class="a" d="M32.64,36.5a1.272,1.272,0,0,1,0-2.544H50.909a1.272,1.272,0,0,1,0,2.544Z" transform="translate(-16.798 -14.992)"/></svg>