<svg xmlns="http://www.w3.org/2000/svg" width="63.291" height="63.16" viewBox="0 0 63.291 63.16"><defs><style>.a{fill:#287dc3;}</style></defs><path class="a" d="M72.7,61.617H25.625V28.125H37.492v2.638H28.263V58.979h41.8V30.763H62.544V28.125H72.7Z" transform="translate(-9.407 -10.324)"/><path class="a" d="M8.967,56.661H6.594A6.53,6.53,0,0,1,0,50.068V24.094A6.53,6.53,0,0,1,6.594,17.5H8.967a6.53,6.53,0,0,1,6.594,6.594V50.07A6.531,6.531,0,0,1,8.967,56.661ZM6.594,20.138a3.884,3.884,0,0,0-3.956,3.956V50.07a3.884,3.884,0,0,0,3.956,3.956H8.967a3.884,3.884,0,0,0,3.956-3.956V24.094a3.884,3.884,0,0,0-3.956-3.956Z" transform="translate(0 -6.424)"/><path class="a" d="M65.992,25.843H37.907l.265-1.582C39.623,17.01,38.04,9.1,33.689,1.978L32.5,0H60.981l.4.66c4.616,7.647,6.329,16.218,4.747,24.13ZM41.072,23.208H63.884A32.391,32.391,0,0,0,59.53,2.638H37.113A34.815,34.815,0,0,1,41.072,23.208Z" transform="translate(-11.93)"/><path class="a" d="M40.832,48.957h4.22v2.638h-4.22Z" transform="translate(-14.989 -17.972)"/><path class="a" d="M51.875,48.957H56.1v2.638h-4.22Z" transform="translate(-19.043 -17.972)"/><path class="a" d="M63.125,48.957h4.22v2.638h-4.22Z" transform="translate(-23.172 -17.972)"/><path class="a" d="M74.168,48.957h4.22v2.638h-4.22Z" transform="translate(-27.226 -17.972)"/><path class="a" d="M40.832,57.707h4.22v2.638h-4.22Z" transform="translate(-14.989 -21.184)"/><path class="a" d="M51.875,57.707H56.1v2.638h-4.22Z" transform="translate(-19.043 -21.184)"/><path class="a" d="M63.125,57.707h4.22v2.638h-4.22Z" transform="translate(-23.172 -21.184)"/><path class="a" d="M74.168,57.707h4.22v2.638h-4.22Z" transform="translate(-27.226 -21.184)"/><path class="a" d="M40.832,66.25h4.22v2.638h-4.22Z" transform="translate(-14.989 -24.32)"/><path class="a" d="M51.875,66.25H56.1v2.638h-4.22Z" transform="translate(-19.043 -24.32)"/><path class="a" d="M63.125,66.25h4.22v2.638h-4.22Z" transform="translate(-23.172 -24.32)"/><path class="a" d="M74.168,66.25h4.22v2.638h-4.22Z" transform="translate(-27.226 -24.32)"/><path class="a" d="M87.082,52.707H89.72V62.6H87.082Z" transform="translate(-31.967 -19.348)"/><path class="a" d="M46.043,8.125H63.448v2.638H46.043Z" transform="translate(-16.902 -2.983)"/><path class="a" d="M50,17.707H67.405v2.638H50Z" transform="translate(-18.354 -6.5)"/><path class="a" d="M50.832,27.293H68.106v2.638H50.832Z" transform="translate(-18.66 -10.019)"/><path class="a" d="M41.356,91.456A8.446,8.446,0,0,1,37.269,90c-1.187-.66-2.109-1.187-3.165-1.056a12.3,12.3,0,0,0-1.713.527,8.213,8.213,0,0,1-3.429.791,6,6,0,0,1-5.011-2.109l-.791-.791c-.791-.922-1.318-1.451-1.978-1.582-.527-.131-.922.131-1.713.4a6.29,6.29,0,0,1-2.373.527,3.951,3.951,0,0,1-3.165-1.318c-1.451-1.713-1.187-4.351-.922-7.251l.262-1.056,2.638.265-.131,1.187c-.265,2.242-.4,4.482.265,5.273a1.453,1.453,0,0,0,1.187.4,2.931,2.931,0,0,0,1.318-.4,5.449,5.449,0,0,1,3.034-.527c1.713.265,2.638,1.451,3.56,2.373a3.524,3.524,0,0,1,.66.791,3.372,3.372,0,0,0,3.165,1.318,4.938,4.938,0,0,0,2.373-.66,11.218,11.218,0,0,1,2.242-.66c1.847-.265,3.429.66,4.747,1.318a5.621,5.621,0,0,0,3.165,1.056c.791-.131,1.451-1.056,1.978-2.5.131-.527.4-1.056.527-1.451.131-.527.4-1.056.527-1.713a6.7,6.7,0,0,1,2.638-3.3A7.478,7.478,0,0,0,48.874,78l2.373,1.187a10.785,10.785,0,0,1-2.242,2.638c-.791.791-1.582,1.318-1.847,2.242a7.339,7.339,0,0,0-.527,1.582c-.131.527-.4,1.056-.527,1.713-.922,2.373-2.373,3.825-3.956,4.087-.136,0-.532,0-.794,0Z" transform="translate(-4.699 -28.296)"/></svg>