<svg xmlns="http://www.w3.org/2000/svg" width="27.448" height="28.569" viewBox="0 0 27.448 28.569"><g opacity="0.15"><path d="M35.473,15.156H49.555c.647,0,1.3.01,1.942,0h.027a1.225,1.225,0,0,0,0-2.45H37.442c-.647,0-1.3-.01-1.942,0h-.027a1.225,1.225,0,1,0,0,2.45Z" transform="translate(-25.302 -10.116)"/><path d="M6.957,15.165h3.8a1.225,1.225,0,0,0,0-2.45h-3.8a1.225,1.225,0,0,0,0,2.45Z" transform="translate(-5.731 -10.125)"/><path d="M21.623,9.625a3.2,3.2,0,0,1-.341-.022c.108.015.218.031.325.043a2.921,2.921,0,0,1-.674-.184c.1.039.2.083.294.123a2.764,2.764,0,0,1-.555-.325c.083.064.165.129.247.194a2.7,2.7,0,0,1-.48-.48c.064.083.129.165.194.247a2.6,2.6,0,0,1-.325-.555c.039.1.083.2.123.294a2.594,2.594,0,0,1-.184-.674c.015.108.031.218.043.325a2.869,2.869,0,0,1,0-.68c-.015.108-.031.218-.043.325a2.921,2.921,0,0,1,.184-.674c-.039.1-.083.2-.123.294a2.764,2.764,0,0,1,.325-.555c-.064.083-.129.165-.194.247a2.7,2.7,0,0,1,.48-.48c-.083.064-.165.129-.247.194a2.6,2.6,0,0,1,.555-.325c-.1.039-.2.083-.294.123a2.594,2.594,0,0,1,.674-.184c-.108.015-.218.031-.325.043a2.869,2.869,0,0,1,.68,0c-.108-.015-.218-.031-.325-.043a2.921,2.921,0,0,1,.674.184c-.1-.039-.2-.083-.294-.123a2.764,2.764,0,0,1,.555.325c-.083-.064-.165-.129-.247-.194a2.7,2.7,0,0,1,.48.48c-.064-.083-.129-.165-.194-.247a2.6,2.6,0,0,1,.325.555c-.039-.1-.083-.2-.123-.294A2.594,2.594,0,0,1,23,8.255c-.015-.108-.031-.218-.043-.325a2.869,2.869,0,0,1,0,.68c.015-.108.031-.218.043-.325a2.921,2.921,0,0,1-.184.674c.039-.1.083-.2.123-.294a2.764,2.764,0,0,1-.325.555c.064-.083.129-.165.194-.247a2.7,2.7,0,0,1-.48.48c.083-.064.165-.129.247-.194a2.6,2.6,0,0,1-.555.325c.1-.039.2-.083.294-.123a2.594,2.594,0,0,1-.674.184c.108-.015.218-.031.325-.043a3.156,3.156,0,0,1-.339.022,1.273,1.273,0,0,0-.867.358,1.227,1.227,0,0,0,.867,2.093,3.748,3.748,0,0,0,2.122-.652,4.334,4.334,0,0,0,.983-.968A3.785,3.785,0,0,0,24.118,5.4a4.362,4.362,0,0,0-1.179-.7,3.786,3.786,0,0,0-3.276.3A3.74,3.74,0,0,0,18.2,6.6a4.39,4.39,0,0,0-.247.637,4.57,4.57,0,0,0-.12.692,3.757,3.757,0,0,0,.07,1.17,3.644,3.644,0,0,0,1.217,2.036,4.321,4.321,0,0,0,1.252.729,3.578,3.578,0,0,0,1.247.211,1.224,1.224,0,1,0,0-2.448Z" transform="translate(-14.025 -4.459)"/><path d="M73.559,48.564h4.1a1.225,1.225,0,1,0,0-2.45h-4.1a1.225,1.225,0,1,0,0,2.45Z" transform="translate(-51.442 -33.048)"/><path d="M6.957,48.555h13.8c.637,0,1.274.01,1.911,0H22.7a1.225,1.225,0,1,0,0-2.45H8.9c-.637,0-1.274-.01-1.911,0H6.957a1.225,1.225,0,1,0,0,2.45Z" transform="translate(-5.731 -33.039)"/><path d="M59.7,43.022A3.2,3.2,0,0,1,59.357,43c.108.015.218.031.325.043a2.921,2.921,0,0,1-.674-.184c.1.039.2.083.294.123a2.764,2.764,0,0,1-.555-.325c.083.064.165.129.247.194a2.7,2.7,0,0,1-.48-.48c.064.083.129.165.194.247a2.6,2.6,0,0,1-.325-.555c.039.1.083.2.123.294a2.594,2.594,0,0,1-.184-.674c.015.108.031.218.043.325a2.869,2.869,0,0,1,0-.68c-.015.108-.031.218-.043.325a2.921,2.921,0,0,1,.184-.674c-.039.1-.083.2-.123.294a2.764,2.764,0,0,1,.325-.555c-.064.083-.129.165-.194.247a2.7,2.7,0,0,1,.48-.48c-.083.064-.165.129-.247.194a2.6,2.6,0,0,1,.555-.325c-.1.039-.2.083-.294.123a2.6,2.6,0,0,1,.674-.184c-.108.015-.218.031-.325.043a2.869,2.869,0,0,1,.68,0c-.108-.015-.218-.031-.325-.043a2.92,2.92,0,0,1,.674.184c-.1-.039-.2-.083-.294-.123a2.764,2.764,0,0,1,.555.325c-.083-.064-.165-.129-.247-.194a2.7,2.7,0,0,1,.48.48c-.064-.083-.129-.165-.194-.247a2.6,2.6,0,0,1,.325.555c-.039-.1-.083-.2-.123-.294a2.6,2.6,0,0,1,.184.674c-.015-.108-.031-.218-.043-.325a2.869,2.869,0,0,1,0,.68c.015-.108.031-.218.043-.325a2.921,2.921,0,0,1-.184.674c.039-.1.083-.2.123-.294a2.765,2.765,0,0,1-.325.555c.064-.083.129-.165.194-.247a2.7,2.7,0,0,1-.48.48c.083-.064.165-.129.247-.194a2.6,2.6,0,0,1-.555.325c.1-.039.2-.083.294-.123a2.594,2.594,0,0,1-.674.184c.108-.015.218-.031.325-.043a2.887,2.887,0,0,1-.339.022,1.273,1.273,0,0,0-.867.358,1.227,1.227,0,0,0,.867,2.093,3.748,3.748,0,0,0,2.122-.652,4.334,4.334,0,0,0,.983-.968,3.785,3.785,0,0,0-.609-5.054,4.361,4.361,0,0,0-1.179-.7,3.785,3.785,0,0,0-1.109-.233A3.79,3.79,0,0,0,56.273,40a4.388,4.388,0,0,0-.247.637,4.569,4.569,0,0,0-.12.692,3.757,3.757,0,0,0,.07,1.17,3.644,3.644,0,0,0,1.217,2.036,4.321,4.321,0,0,0,1.252.729,3.578,3.578,0,0,0,1.247.211,1.225,1.225,0,0,0,.006-2.449Z" transform="translate(-40.154 -27.381)"/><path d="M51.1,81.953h9.768c.453,0,.907.01,1.36,0h.022a1.225,1.225,0,0,0,0-2.45H52.48c-.453,0-.907-.01-1.36,0H51.1a1.225,1.225,0,0,0,0,2.45Z" transform="translate(-36.026 -55.961)"/><path d="M6.957,81.962h8.7a1.225,1.225,0,1,0,0-2.45h-8.7a1.225,1.225,0,1,0,0,2.45Z" transform="translate(-5.731 -55.97)"/><path d="M37.237,76.425A3.2,3.2,0,0,1,36.9,76.4c.108.015.218.031.325.043a2.921,2.921,0,0,1-.674-.184c.1.039.2.083.294.123a2.765,2.765,0,0,1-.555-.325c.083.064.165.129.248.194a2.7,2.7,0,0,1-.48-.48c.064.083.129.165.194.247a2.6,2.6,0,0,1-.325-.555c.039.1.083.2.123.294a2.594,2.594,0,0,1-.184-.674c.015.108.031.218.043.325a2.87,2.87,0,0,1,0-.68c-.015.108-.031.218-.043.325a2.921,2.921,0,0,1,.184-.674c-.039.1-.083.2-.123.294a2.764,2.764,0,0,1,.325-.555c-.064.083-.129.165-.194.247a2.7,2.7,0,0,1,.48-.48c-.083.064-.165.129-.248.194a2.6,2.6,0,0,1,.555-.325c-.1.039-.2.083-.294.123a2.594,2.594,0,0,1,.674-.184c-.108.015-.218.031-.325.043a2.869,2.869,0,0,1,.68,0c-.108-.015-.218-.031-.325-.043a2.92,2.92,0,0,1,.674.184c-.1-.039-.2-.083-.294-.123a2.764,2.764,0,0,1,.555.325c-.083-.064-.165-.129-.247-.194a2.7,2.7,0,0,1,.48.48c-.064-.083-.129-.165-.194-.247a2.6,2.6,0,0,1,.325.555c-.039-.1-.083-.2-.123-.294a2.594,2.594,0,0,1,.184.674c-.015-.108-.031-.218-.043-.325a2.869,2.869,0,0,1,0,.68c.015-.108.031-.218.043-.325a2.92,2.92,0,0,1-.184.674c.039-.1.083-.2.123-.294a2.764,2.764,0,0,1-.325.555c.064-.083.129-.165.194-.247a2.7,2.7,0,0,1-.48.48c.083-.064.165-.129.247-.194a2.6,2.6,0,0,1-.555.325c.1-.039.2-.083.294-.123a2.6,2.6,0,0,1-.674.184c.108-.015.218-.031.325-.043a3.176,3.176,0,0,1-.339.022,1.273,1.273,0,0,0-.867.358,1.227,1.227,0,0,0,.867,2.093,3.748,3.748,0,0,0,2.122-.652,4.334,4.334,0,0,0,.983-.968,3.785,3.785,0,0,0-.609-5.054,4.362,4.362,0,0,0-1.179-.7,3.784,3.784,0,0,0-1.109-.233A3.79,3.79,0,0,0,33.812,73.4a4.39,4.39,0,0,0-.247.637,4.57,4.57,0,0,0-.12.692,3.757,3.757,0,0,0,.07,1.17,3.644,3.644,0,0,0,1.217,2.036,4.321,4.321,0,0,0,1.252.729,3.578,3.578,0,0,0,1.247.211,1.225,1.225,0,0,0,.006-2.449Z" transform="translate(-24.738 -50.307)"/></g></svg>