<svg xmlns="http://www.w3.org/2000/svg" width="32.133" height="25.543" viewBox="0 0 32.133 25.543"><path d="M33.518,18.653h-.777V14.666a1.088,1.088,0,0,0-1.081-1.081H15.407l-.2-.641A1.054,1.054,0,0,0,14.19,12.2H3.581A1.088,1.088,0,0,0,2.5,13.28V36.661a1.088,1.088,0,0,0,1.081,1.081h29.97a1.088,1.088,0,0,0,1.081-1.081V19.7a1.113,1.113,0,0,0-1.115-1.047Zm-2.939-2.906v2.906H17.063l-.979-2.906ZM32.47,35.58H4.629V14.362h8.75l1.893,5.677a1.054,1.054,0,0,0,1.014.743H32.437v14.8Z" transform="translate(-2.5 -12.199)" opacity="0.15"/></svg>