<svg xmlns="http://www.w3.org/2000/svg" width="11.407" height="11.38" viewBox="0 0 11.407 11.38"><defs><style>.a{fill:#287dc3;}</style></defs><path class="a" d="M16.5,11.745a.391.391,0,0,0-.237.016,3.175,3.175,0,0,0-1.515,2.383c-.395,2.714,1.752,5.066,3.724,6.612,1.752,1.373,5.112,3.629,7.1,1.452a1.633,1.633,0,0,0,.536-1.057c-.047-.663-.663-1.136-1.136-1.5-.363-.268-1.121-1.01-1.594-.994-.426.016-.694.457-.963.726l-.473.473c-.079.079-1.089-.584-1.2-.663a8.05,8.05,0,0,1-1.152-.9,7.433,7.433,0,0,1-.931-1.073A5.467,5.467,0,0,1,18,16.069s.552-.6.71-.836c.332-.5.584-.9.2-1.5a3.527,3.527,0,0,0-.5-.584,9.582,9.582,0,0,0-1.042-.915,2.213,2.213,0,0,0-.867-.489Z" transform="translate(-14.701 -11.734)"/></svg>