<svg xmlns="http://www.w3.org/2000/svg" width="48.259" height="48.295" viewBox="0 0 48.259 48.295"><defs><style>.a{fill:#287dc3;}</style></defs><path class="a" d="M49.241,48a4.724,4.724,0,0,0,0-6.987l-5.635-5.635a4.707,4.707,0,0,0-3.466-1.57,4.885,4.885,0,0,0-3.466,1.57l-3.25,3.25c-.271-.163-.542-.271-.813-.434-.379-.163-.7-.379-1.028-.542a34.424,34.424,0,0,1-8.4-7.639,18.67,18.67,0,0,1-2.763-4.389c.813-.757,1.625-1.57,2.383-2.33l.868-.868A5.073,5.073,0,0,0,25.3,18.906a4.947,4.947,0,0,0-1.625-3.521L20.91,12.572c-.326-.326-.65-.65-.92-.975-.6-.65-1.246-1.3-1.9-1.9a4.828,4.828,0,0,0-3.413-1.517A5.041,5.041,0,0,0,11.215,9.7L7.694,13.222a7.423,7.423,0,0,0-2.222,4.712,18.907,18.907,0,0,0,1.3,7.584,43.915,43.915,0,0,0,7.8,13.056A48.253,48.253,0,0,0,30.55,51.088a24.094,24.094,0,0,0,8.993,2.653h.65A7.634,7.634,0,0,0,46.044,51.2l.055-.055A18.985,18.985,0,0,1,47.887,49.3,10.431,10.431,0,0,0,49.241,48Zm-3.2-.6a23.524,23.524,0,0,0-1.951,2.059,4.848,4.848,0,0,1-3.847,1.625h-.487a24.023,24.023,0,0,1-8.015-2.438A45.439,45.439,0,0,1,16.684,36.838,42.116,42.116,0,0,1,9.316,24.595,14.158,14.158,0,0,1,8.178,18.2a4.957,4.957,0,0,1,1.409-3.034L13.053,11.7a2.268,2.268,0,0,1,1.57-.757,2.291,2.291,0,0,1,1.57.757c.65.6,1.191,1.191,1.841,1.841l.975.975,2.763,2.763a2.341,2.341,0,0,1,.813,1.625,2.341,2.341,0,0,1-.813,1.625l-.868.868c-.868.868-1.68,1.68-2.546,2.493l-.055.055a2.088,2.088,0,0,0-.542,2.275c0,.055,0,.055.055.108a21.146,21.146,0,0,0,3.305,5.362,37.621,37.621,0,0,0,9.046,8.233c.434.271.868.487,1.246.7.379.163.7.379,1.028.542.055,0,.055.055.108.055a2.2,2.2,0,0,0,.975.271,2.181,2.181,0,0,0,1.517-.7l3.521-3.521a2.4,2.4,0,0,1,1.57-.757,2.407,2.407,0,0,1,1.517.757L47.285,42.9a2.077,2.077,0,0,1-.055,3.25A11.731,11.731,0,0,1,46.043,47.4Zm-15.6-32.12a1.288,1.288,0,0,1,1.57-1.083,15.3,15.3,0,0,1,8.5,4.441,16.387,16.387,0,0,1,4.441,8.5,1.363,1.363,0,0,1-1.083,1.57h-.216a1.39,1.39,0,0,1-1.354-1.138,12.735,12.735,0,0,0-3.684-7.042,13.29,13.29,0,0,0-7.042-3.684,1.286,1.286,0,0,1-1.136-1.568ZM51.029,27.2a23.492,23.492,0,0,0-6.5-12.567,23.136,23.136,0,0,0-12.567-6.5,1.288,1.288,0,0,1-1.083-1.57,1.313,1.313,0,0,1,1.57-1.083A25.93,25.93,0,0,1,53.682,26.709a1.363,1.363,0,0,1-1.083,1.57h-.216A1.292,1.292,0,0,1,51.029,27.2Z" transform="translate(-5.438 -5.446)"/></svg>