<svg xmlns="http://www.w3.org/2000/svg" width="18" height="17"><path fill="#fff" d="M15.769 14.773H2.834a.485.485 0 01-.488-.488V7.041h13.929v7.247a.514.514 0 01-.506.488zM2.834 2.796h2.222v.47a.813.813 0 101.626 0v-.47h5.257v.47a.813.813 0 101.626 0v-.47h2.222a.485.485 0 01.488.488v2.15H2.347V3.288a.486.486 0 01.488-.488zM15.769 1.17h-2.222V.701a.813.813 0 10-1.626 0v.47H6.664v-.47a.813.813 0 10-1.626 0v.47h-2.2c-1.17 0-2.118.948-2.117 2.117v11a2.116 2.116 0 002.113 2.11h12.952a2.116 2.116 0 002.113-2.11v-11a2.132 2.132 0 00-2.132-2.114z"/></svg>